G75*
G70*
%OFA0B0*%
%FSLAX24Y24*%
%IPPOS*%
%LPD*%
%AMOC8*
5,1,8,0,0,1.08239X$1,22.5*
%
%ADD10C,0.0060*%
%ADD11C,0.0020*%
%ADD12C,0.0040*%
%ADD13R,0.0500X0.0350*%
%ADD14C,0.0080*%
%ADD15C,0.0160*%
D10*
X003130Y001230D02*
X003130Y001980D01*
X003480Y001980D01*
X003480Y002580D01*
X003130Y002580D01*
X003130Y007480D01*
X007230Y007480D01*
X007230Y002580D01*
X006880Y002580D01*
X006880Y001980D01*
X007230Y001980D01*
X007230Y001230D01*
X003130Y001230D01*
X004470Y002580D02*
X004472Y002633D01*
X004478Y002686D01*
X004488Y002738D01*
X004502Y002789D01*
X004519Y002839D01*
X004540Y002888D01*
X004565Y002935D01*
X004593Y002980D01*
X004625Y003023D01*
X004660Y003063D01*
X004697Y003100D01*
X004737Y003135D01*
X004780Y003167D01*
X004825Y003195D01*
X004872Y003220D01*
X004921Y003241D01*
X004971Y003258D01*
X005022Y003272D01*
X005074Y003282D01*
X005127Y003288D01*
X005180Y003290D01*
X005233Y003288D01*
X005286Y003282D01*
X005338Y003272D01*
X005389Y003258D01*
X005439Y003241D01*
X005488Y003220D01*
X005535Y003195D01*
X005580Y003167D01*
X005623Y003135D01*
X005663Y003100D01*
X005700Y003063D01*
X005735Y003023D01*
X005767Y002980D01*
X005795Y002935D01*
X005820Y002888D01*
X005841Y002839D01*
X005858Y002789D01*
X005872Y002738D01*
X005882Y002686D01*
X005888Y002633D01*
X005890Y002580D01*
X005888Y002527D01*
X005882Y002474D01*
X005872Y002422D01*
X005858Y002371D01*
X005841Y002321D01*
X005820Y002272D01*
X005795Y002225D01*
X005767Y002180D01*
X005735Y002137D01*
X005700Y002097D01*
X005663Y002060D01*
X005623Y002025D01*
X005580Y001993D01*
X005535Y001965D01*
X005488Y001940D01*
X005439Y001919D01*
X005389Y001902D01*
X005338Y001888D01*
X005286Y001878D01*
X005233Y001872D01*
X005180Y001870D01*
X005127Y001872D01*
X005074Y001878D01*
X005022Y001888D01*
X004971Y001902D01*
X004921Y001919D01*
X004872Y001940D01*
X004825Y001965D01*
X004780Y001993D01*
X004737Y002025D01*
X004697Y002060D01*
X004660Y002097D01*
X004625Y002137D01*
X004593Y002180D01*
X004565Y002225D01*
X004540Y002272D01*
X004519Y002321D01*
X004502Y002371D01*
X004488Y002422D01*
X004478Y002474D01*
X004472Y002527D01*
X004470Y002580D01*
X019718Y007750D02*
X022642Y007750D01*
X022642Y014700D01*
X019718Y014700D01*
X019718Y007750D01*
X019730Y014330D02*
X019732Y014359D01*
X019738Y014387D01*
X019747Y014414D01*
X019761Y014439D01*
X019777Y014463D01*
X019797Y014483D01*
X019819Y014502D01*
X019843Y014516D01*
X019870Y014528D01*
X019897Y014536D01*
X019926Y014540D01*
X019954Y014540D01*
X019983Y014536D01*
X020010Y014528D01*
X020037Y014516D01*
X020061Y014502D01*
X020083Y014483D01*
X020103Y014463D01*
X020119Y014439D01*
X020133Y014414D01*
X020142Y014387D01*
X020148Y014359D01*
X020150Y014330D01*
X020148Y014301D01*
X020142Y014273D01*
X020133Y014246D01*
X020119Y014221D01*
X020103Y014197D01*
X020083Y014177D01*
X020061Y014158D01*
X020037Y014144D01*
X020010Y014132D01*
X019983Y014124D01*
X019954Y014120D01*
X019926Y014120D01*
X019897Y014124D01*
X019870Y014132D01*
X019843Y014144D01*
X019819Y014158D01*
X019797Y014177D01*
X019777Y014197D01*
X019761Y014221D01*
X019747Y014246D01*
X019738Y014273D01*
X019732Y014301D01*
X019730Y014330D01*
D11*
X006980Y007230D02*
X006980Y003980D01*
X003380Y003980D01*
X003380Y007230D01*
X006980Y007230D01*
D12*
X006048Y003860D02*
X005931Y003860D01*
X005873Y003802D01*
X006048Y003860D02*
X006106Y003802D01*
X006106Y003744D01*
X005873Y003510D01*
X006106Y003510D01*
X006232Y003510D02*
X006232Y003744D01*
X006290Y003744D01*
X006349Y003685D01*
X006407Y003744D01*
X006465Y003685D01*
X006465Y003510D01*
X006349Y003510D02*
X006349Y003685D01*
X006591Y003744D02*
X006591Y003510D01*
X006708Y003510D02*
X006708Y003685D01*
X006766Y003744D01*
X006824Y003685D01*
X006824Y003510D01*
X006708Y003685D02*
X006649Y003744D01*
X006591Y003744D01*
X005750Y003568D02*
X005692Y003568D01*
X005692Y003510D01*
X005750Y003510D01*
X005750Y003568D01*
X005750Y003510D02*
X005633Y003393D01*
X005508Y003568D02*
X005449Y003510D01*
X005333Y003510D01*
X005274Y003568D01*
X005274Y003685D02*
X005391Y003744D01*
X005449Y003744D01*
X005508Y003685D01*
X005508Y003568D01*
X005274Y003685D02*
X005274Y003860D01*
X005508Y003860D01*
X005032Y003860D02*
X005032Y003510D01*
X004915Y003510D02*
X005149Y003510D01*
X004915Y003744D02*
X005032Y003860D01*
X004789Y003744D02*
X004789Y003510D01*
X004789Y003685D02*
X004556Y003685D01*
X004556Y003744D02*
X004673Y003860D01*
X004789Y003744D01*
X004556Y003744D02*
X004556Y003510D01*
D13*
X004180Y007655D03*
X005180Y007655D03*
X006180Y007655D03*
D14*
X001180Y001730D02*
X001430Y001480D01*
X001930Y001480D01*
X002180Y001730D01*
X002180Y002230D01*
X001930Y002480D01*
X002180Y002730D01*
X002180Y003230D01*
X001930Y003480D01*
X002180Y003730D01*
X002180Y004230D01*
X001930Y004480D01*
X002180Y004730D01*
X002180Y005230D01*
X001930Y005480D01*
X002180Y005730D01*
X002180Y006230D01*
X001930Y006480D01*
X002180Y006730D01*
X002180Y007230D01*
X001930Y007480D01*
X002180Y007730D01*
X002180Y008230D01*
X001930Y008480D01*
X002180Y008730D01*
X002180Y009230D01*
X001930Y009480D01*
X002180Y009730D01*
X002180Y010230D01*
X001930Y010480D01*
X002180Y010730D01*
X002180Y011230D01*
X001930Y011480D01*
X002180Y011730D01*
X002180Y012230D01*
X001930Y012480D01*
X002180Y012730D01*
X002180Y013230D01*
X001930Y013480D01*
X002180Y013730D01*
X002180Y014230D01*
X001930Y014480D01*
X002180Y014730D01*
X002180Y015230D01*
X001930Y015480D01*
X002180Y015730D01*
X002180Y016230D01*
X001930Y016480D01*
X001430Y016480D01*
X001180Y016230D01*
X001180Y015730D01*
X001430Y015480D01*
X001180Y015230D01*
X001180Y014730D01*
X001430Y014480D01*
X001180Y014230D01*
X001180Y013730D01*
X001430Y013480D01*
X001180Y013230D01*
X001180Y012730D01*
X001430Y012480D01*
X001180Y012230D01*
X001180Y011730D01*
X001430Y011480D01*
X001180Y011230D01*
X001180Y010730D01*
X001430Y010480D01*
X001180Y010230D01*
X001180Y009730D01*
X001430Y009480D01*
X001180Y009230D01*
X001180Y008730D01*
X001430Y008480D01*
X001180Y008230D01*
X001180Y007730D01*
X001430Y007480D01*
X001180Y007230D01*
X001180Y006730D01*
X001430Y006480D01*
X001180Y006230D01*
X001180Y005730D01*
X001430Y005480D01*
X001180Y005230D01*
X001180Y004730D01*
X001430Y004480D01*
X001180Y004230D01*
X001180Y003730D01*
X001430Y003480D01*
X001180Y003230D01*
X001180Y002730D01*
X001430Y002480D01*
X001180Y002230D01*
X001180Y001730D01*
X007980Y002430D02*
X013380Y002430D01*
X013380Y008580D01*
X007980Y008580D01*
X007980Y002430D01*
X016780Y008630D02*
X016780Y011330D01*
X016782Y011389D01*
X016788Y011447D01*
X016797Y011506D01*
X016811Y011563D01*
X016828Y011619D01*
X016849Y011674D01*
X016873Y011728D01*
X016901Y011780D01*
X016932Y011830D01*
X016966Y011878D01*
X017003Y011923D01*
X017044Y011966D01*
X017087Y012007D01*
X017132Y012044D01*
X017180Y012078D01*
X017230Y012109D01*
X017282Y012137D01*
X017336Y012161D01*
X017391Y012182D01*
X017447Y012199D01*
X017504Y012213D01*
X017563Y012222D01*
X017621Y012228D01*
X017680Y012230D01*
X017739Y012228D01*
X017797Y012222D01*
X017856Y012213D01*
X017913Y012199D01*
X017969Y012182D01*
X018024Y012161D01*
X018078Y012137D01*
X018130Y012109D01*
X018180Y012078D01*
X018228Y012044D01*
X018273Y012007D01*
X018316Y011966D01*
X018357Y011923D01*
X018394Y011878D01*
X018428Y011830D01*
X018459Y011780D01*
X018487Y011728D01*
X018511Y011674D01*
X018532Y011619D01*
X018549Y011563D01*
X018563Y011506D01*
X018572Y011447D01*
X018578Y011389D01*
X018580Y011330D01*
X018580Y008630D01*
X018578Y008571D01*
X018572Y008513D01*
X018563Y008454D01*
X018549Y008397D01*
X018532Y008341D01*
X018511Y008286D01*
X018487Y008232D01*
X018459Y008180D01*
X018428Y008130D01*
X018394Y008082D01*
X018357Y008037D01*
X018316Y007994D01*
X018273Y007953D01*
X018228Y007916D01*
X018180Y007882D01*
X018130Y007851D01*
X018078Y007823D01*
X018024Y007799D01*
X017969Y007778D01*
X017913Y007761D01*
X017856Y007747D01*
X017797Y007738D01*
X017739Y007732D01*
X017680Y007730D01*
X017621Y007732D01*
X017563Y007738D01*
X017504Y007747D01*
X017447Y007761D01*
X017391Y007778D01*
X017336Y007799D01*
X017282Y007823D01*
X017230Y007851D01*
X017180Y007882D01*
X017132Y007916D01*
X017087Y007953D01*
X017044Y007994D01*
X017003Y008037D01*
X016966Y008082D01*
X016932Y008130D01*
X016901Y008180D01*
X016873Y008232D01*
X016849Y008286D01*
X016828Y008341D01*
X016811Y008397D01*
X016797Y008454D01*
X016788Y008513D01*
X016782Y008571D01*
X016780Y008630D01*
D15*
X015680Y009968D02*
X015680Y009992D01*
X015680Y010968D02*
X015680Y010992D01*
X007192Y008480D02*
X007168Y008480D01*
X003192Y008480D02*
X003168Y008480D01*
M02*
