G75*
G70*
%OFA0B0*%
%FSLAX24Y24*%
%IPPOS*%
%LPD*%
%AMOC8*
5,1,8,0,0,1.08239X$1,22.5*
%
%ADD10C,0.0600*%
%ADD11C,0.0650*%
%ADD12C,0.0740*%
%ADD13R,0.0315X0.0354*%
%ADD14R,0.0551X0.0394*%
%ADD15R,0.0315X0.0472*%
%ADD16R,0.0551X0.0512*%
%ADD17R,0.0512X0.0551*%
%ADD18R,0.0472X0.0315*%
%ADD19C,0.0396*%
%ADD20C,0.0160*%
%ADD21R,0.0396X0.0396*%
D10*
X004180Y008180D02*
X004180Y008780D01*
X005180Y008780D02*
X005180Y008180D01*
X006180Y008180D02*
X006180Y008780D01*
D11*
X017680Y008980D03*
X017680Y010980D03*
D12*
X011930Y006980D03*
X010930Y006980D03*
X009930Y006980D03*
X009430Y007980D03*
X010430Y007980D03*
X011430Y007980D03*
X001680Y007980D03*
X001680Y006980D03*
X001680Y005980D03*
X001680Y004980D03*
X001680Y003980D03*
X001680Y002980D03*
X001680Y001980D03*
X001680Y008980D03*
X001680Y009980D03*
X001680Y010980D03*
X001680Y011980D03*
X001680Y012980D03*
X001680Y013980D03*
X001680Y014980D03*
X001680Y015980D03*
D13*
X003306Y015586D03*
X004054Y015586D03*
X003680Y016413D03*
X003180Y013413D03*
X002806Y012586D03*
X003554Y012586D03*
D14*
X004113Y014106D03*
X004113Y014854D03*
X003247Y014480D03*
D15*
X005326Y014980D03*
X006034Y014980D03*
X005534Y015980D03*
X004826Y015980D03*
X006826Y015980D03*
X007534Y015980D03*
X008326Y015980D03*
X009034Y015980D03*
D16*
X010727Y015421D03*
X010727Y014421D03*
X014483Y013393D03*
X014483Y016393D03*
D17*
X009767Y014583D03*
X006767Y014583D03*
X007739Y010827D03*
X008739Y010827D03*
D18*
X010680Y011626D03*
X010680Y012334D03*
X014680Y014626D03*
X014680Y015334D03*
X004180Y013334D03*
X004180Y012626D03*
D19*
X003180Y011980D03*
X003180Y010980D03*
X003180Y009480D03*
X008180Y009480D03*
X008180Y008480D03*
X009680Y013480D03*
X005680Y013480D03*
X002680Y014480D03*
X006180Y016480D03*
X013680Y013980D03*
X015680Y013980D03*
X016680Y011980D03*
X020680Y010980D03*
X022180Y012480D03*
X020680Y013980D03*
X024180Y012480D03*
X025180Y012480D03*
X018680Y016480D03*
X019180Y007480D03*
X019280Y006880D03*
X019080Y005780D03*
X019180Y004480D03*
X021080Y005680D03*
X023180Y006080D03*
X024680Y004980D03*
X024180Y003980D03*
X022480Y003980D03*
X022980Y007480D03*
X017180Y006980D03*
X017180Y006480D03*
D20*
X001563Y000660D02*
X000660Y000660D01*
X000660Y001084D01*
X000677Y001044D01*
X000679Y001042D01*
X000680Y001039D01*
X000712Y001008D01*
X000744Y000977D01*
X000747Y000975D01*
X000749Y000973D01*
X000791Y000957D01*
X000832Y000940D01*
X000835Y000940D01*
X001563Y000660D01*
X001556Y000663D02*
X000660Y000663D01*
X000660Y000821D02*
X001144Y000821D01*
X000741Y000980D02*
X000660Y000980D01*
X000880Y001180D02*
X000880Y004980D01*
X001680Y004980D01*
X002075Y004626D02*
X002240Y004626D01*
X002129Y004680D02*
X001980Y004531D01*
X001858Y004480D01*
X001980Y004429D01*
X002129Y004280D01*
X002210Y004085D01*
X002210Y003875D01*
X002129Y003680D01*
X001980Y003531D01*
X001858Y003480D01*
X001980Y003429D01*
X002129Y003280D01*
X002210Y003085D01*
X002210Y002875D01*
X002129Y002680D01*
X001980Y002531D01*
X001858Y002480D01*
X001980Y002429D01*
X002129Y002280D01*
X002154Y002220D01*
X002240Y002220D01*
X002240Y006628D01*
X002277Y006716D01*
X002344Y006783D01*
X002432Y006820D01*
X003240Y006820D01*
X003240Y007228D01*
X003277Y007316D01*
X003344Y007383D01*
X003432Y007420D01*
X006040Y007420D01*
X006040Y007740D01*
X005919Y007790D01*
X005790Y007919D01*
X005720Y008088D01*
X005720Y008871D01*
X005790Y009041D01*
X005919Y009170D01*
X006088Y009240D01*
X006271Y009240D01*
X006441Y009170D01*
X006570Y009041D01*
X006640Y008871D01*
X006640Y008088D01*
X006570Y007919D01*
X006520Y007869D01*
X006520Y007132D01*
X006483Y007044D01*
X006416Y006977D01*
X006328Y006940D01*
X003720Y006940D01*
X003720Y006532D01*
X003683Y006444D01*
X003616Y006377D01*
X003528Y006340D01*
X002720Y006340D01*
X002720Y001932D01*
X002683Y001844D01*
X002616Y001777D01*
X002528Y001740D01*
X002154Y001740D01*
X002129Y001680D01*
X001980Y001531D01*
X001785Y001450D01*
X001575Y001450D01*
X001380Y001531D01*
X001231Y001680D01*
X001150Y001875D01*
X001150Y002085D01*
X001231Y002280D01*
X001380Y002429D01*
X001502Y002480D01*
X001380Y002531D01*
X001231Y002680D01*
X001150Y002875D01*
X001150Y003085D01*
X001231Y003280D01*
X001380Y003429D01*
X001502Y003480D01*
X001380Y003531D01*
X001231Y003680D01*
X001150Y003875D01*
X001150Y004085D01*
X001231Y004280D01*
X001380Y004429D01*
X001502Y004480D01*
X001380Y004531D01*
X001231Y004680D01*
X001206Y004740D01*
X001120Y004740D01*
X001120Y001345D01*
X002225Y000920D01*
X004691Y000920D01*
X004512Y000968D01*
X004118Y001196D01*
X003796Y001518D01*
X003568Y001912D01*
X003450Y002352D01*
X003450Y002808D01*
X003568Y003248D01*
X003796Y003642D01*
X004118Y003964D01*
X004512Y004192D01*
X004952Y004310D01*
X005408Y004310D01*
X005848Y004192D01*
X006242Y003964D01*
X006564Y003642D01*
X006792Y003248D01*
X006910Y002808D01*
X006910Y002352D01*
X006792Y001912D01*
X006564Y001518D01*
X006242Y001196D01*
X005848Y000968D01*
X005669Y000920D01*
X022778Y000920D01*
X025040Y003277D01*
X025040Y005340D01*
X024632Y005340D01*
X024544Y005377D01*
X024477Y005444D01*
X024440Y005532D01*
X024440Y012234D01*
X024383Y012176D01*
X024251Y012122D01*
X024161Y012122D01*
X023383Y011344D01*
X023316Y011277D01*
X023228Y011240D01*
X020926Y011240D01*
X020984Y011183D01*
X021038Y011051D01*
X021038Y010909D01*
X020984Y010777D01*
X020920Y010714D01*
X020920Y006001D01*
X021009Y006038D01*
X021040Y006038D01*
X021040Y007528D01*
X021077Y007616D01*
X021144Y007683D01*
X021232Y007720D01*
X022714Y007720D01*
X022777Y007784D01*
X022909Y007838D01*
X023051Y007838D01*
X023183Y007784D01*
X023284Y007683D01*
X023338Y007551D01*
X023338Y007409D01*
X023284Y007277D01*
X023183Y007176D01*
X023051Y007122D01*
X022909Y007122D01*
X022777Y007176D01*
X022714Y007240D01*
X021520Y007240D01*
X021520Y005632D01*
X021483Y005544D01*
X021416Y005477D01*
X021360Y005453D01*
X021283Y005376D01*
X021151Y005322D01*
X021009Y005322D01*
X020920Y005359D01*
X020920Y003720D01*
X022234Y003720D01*
X022176Y003777D01*
X022122Y003909D01*
X022122Y004051D01*
X022176Y004183D01*
X022277Y004284D01*
X022409Y004338D01*
X022551Y004338D01*
X022683Y004284D01*
X022784Y004183D01*
X022838Y004051D01*
X022838Y003909D01*
X022784Y003777D01*
X022726Y003720D01*
X023934Y003720D01*
X023876Y003777D01*
X023822Y003909D01*
X023822Y004051D01*
X023876Y004183D01*
X023977Y004284D01*
X024109Y004338D01*
X024251Y004338D01*
X024383Y004284D01*
X024484Y004183D01*
X024538Y004051D01*
X024538Y003909D01*
X024484Y003777D01*
X024420Y003714D01*
X024420Y003432D01*
X024383Y003344D01*
X024316Y003277D01*
X024228Y003240D01*
X019186Y003240D01*
X011133Y002842D01*
X011128Y002840D01*
X011086Y002840D01*
X011044Y002838D01*
X011038Y002840D01*
X011032Y002840D01*
X010994Y002856D01*
X010954Y002870D01*
X010950Y002874D01*
X010944Y002877D01*
X010914Y002906D01*
X010883Y002934D01*
X010881Y002940D01*
X010877Y002944D01*
X010861Y002983D01*
X010843Y003020D01*
X010842Y003027D01*
X010840Y003032D01*
X010840Y003074D01*
X010838Y003116D01*
X010840Y003122D01*
X010840Y005377D01*
X008660Y005740D01*
X008632Y005740D01*
X008613Y005748D01*
X008593Y005751D01*
X008570Y005766D01*
X008544Y005777D01*
X008530Y005791D01*
X008512Y005802D01*
X008496Y005824D01*
X008477Y005844D01*
X008469Y005863D01*
X008457Y005879D01*
X008451Y005907D01*
X008440Y005932D01*
X008440Y005953D01*
X008435Y005972D01*
X008440Y006000D01*
X008440Y008234D01*
X008383Y008176D01*
X008251Y008122D01*
X008109Y008122D01*
X007977Y008176D01*
X007876Y008277D01*
X007822Y008409D01*
X007822Y008551D01*
X007876Y008683D01*
X007940Y008746D01*
X007940Y009214D01*
X007876Y009277D01*
X007822Y009409D01*
X007822Y009551D01*
X007876Y009683D01*
X007977Y009784D01*
X008109Y009838D01*
X008251Y009838D01*
X008383Y009784D01*
X008440Y009726D01*
X008440Y010392D01*
X008417Y010392D01*
X008323Y010485D01*
X008323Y011169D01*
X008417Y011263D01*
X008940Y011263D01*
X008940Y011528D01*
X008977Y011616D01*
X009044Y011683D01*
X009132Y011720D01*
X010284Y011720D01*
X010284Y011849D01*
X010378Y011943D01*
X010982Y011943D01*
X011076Y011849D01*
X011076Y011402D01*
X010982Y011308D01*
X010848Y011308D01*
X010816Y011277D01*
X010728Y011240D01*
X009420Y011240D01*
X009420Y010550D01*
X009425Y010525D01*
X009420Y010503D01*
X009420Y010480D01*
X009410Y010456D01*
X009405Y010432D01*
X009392Y010413D01*
X009383Y010391D01*
X009366Y010374D01*
X009352Y010353D01*
X009332Y010340D01*
X009316Y010324D01*
X009293Y010314D01*
X009272Y010300D01*
X009249Y010296D01*
X009228Y010287D01*
X009203Y010287D01*
X009178Y010283D01*
X009155Y010287D01*
X009132Y010287D01*
X009109Y010297D01*
X009084Y010302D01*
X009065Y010315D01*
X009044Y010324D01*
X009026Y010342D01*
X008953Y010392D01*
X008920Y010392D01*
X008920Y008134D01*
X008981Y008280D01*
X009130Y008429D01*
X009190Y008454D01*
X009190Y009278D01*
X009227Y009366D01*
X009294Y009433D01*
X009382Y009470D01*
X013940Y009470D01*
X013940Y012028D01*
X013977Y012116D01*
X013997Y012136D01*
X011065Y012099D01*
X010982Y012017D01*
X010378Y012017D01*
X010284Y012111D01*
X010284Y012558D01*
X010378Y012652D01*
X010982Y012652D01*
X011055Y012579D01*
X021910Y012717D01*
X021934Y012740D01*
X020632Y012740D01*
X020544Y012777D01*
X020477Y012844D01*
X020440Y012932D01*
X020440Y013714D01*
X020376Y013777D01*
X020322Y013909D01*
X020322Y014051D01*
X020376Y014183D01*
X020477Y014284D01*
X020609Y014338D01*
X020751Y014338D01*
X020883Y014284D01*
X020984Y014183D01*
X021038Y014051D01*
X021038Y013909D01*
X020984Y013777D01*
X020920Y013714D01*
X020920Y013220D01*
X023822Y013220D01*
X023822Y013744D01*
X023916Y013838D01*
X023940Y013838D01*
X023940Y015240D01*
X016420Y015240D01*
X016420Y013432D01*
X016383Y013344D01*
X016316Y013277D01*
X016228Y013240D01*
X015132Y013240D01*
X015044Y013277D01*
X014977Y013344D01*
X014977Y013344D01*
X014919Y013402D01*
X014919Y013071D01*
X014825Y012977D01*
X014141Y012977D01*
X014048Y013071D01*
X014048Y013414D01*
X013759Y013625D01*
X013751Y013622D01*
X013609Y013622D01*
X013477Y013676D01*
X013376Y013777D01*
X013322Y013909D01*
X013322Y014051D01*
X013376Y014183D01*
X013477Y014284D01*
X013609Y014338D01*
X013751Y014338D01*
X013883Y014284D01*
X013984Y014183D01*
X014038Y014051D01*
X014038Y014016D01*
X014321Y013809D01*
X014511Y013809D01*
X014477Y013844D01*
X014440Y013932D01*
X014440Y014308D01*
X014378Y014308D01*
X014284Y014402D01*
X014284Y014849D01*
X014378Y014943D01*
X014982Y014943D01*
X015076Y014849D01*
X015076Y014402D01*
X014982Y014308D01*
X014920Y014308D01*
X014920Y014079D01*
X015279Y013720D01*
X015434Y013720D01*
X015376Y013777D01*
X015322Y013909D01*
X015322Y014051D01*
X015376Y014183D01*
X015440Y014246D01*
X015440Y015740D01*
X014849Y015740D01*
X014761Y015777D01*
X014693Y015844D01*
X014560Y015977D01*
X014141Y015977D01*
X014048Y016071D01*
X014048Y016702D01*
X013920Y016715D01*
X013920Y016432D01*
X013883Y016344D01*
X013816Y016277D01*
X013728Y016240D01*
X009420Y016240D01*
X009420Y015932D01*
X009383Y015844D01*
X009352Y015812D01*
X009352Y015678D01*
X009335Y015661D01*
X010292Y015661D01*
X010292Y015743D01*
X010385Y015837D01*
X011069Y015837D01*
X011163Y015743D01*
X011163Y015099D01*
X011069Y015005D01*
X010385Y015005D01*
X010292Y015099D01*
X010292Y015181D01*
X008120Y015181D01*
X008120Y011204D01*
X008155Y011169D01*
X008155Y010485D01*
X008061Y010392D01*
X007903Y010392D01*
X007883Y010344D01*
X007816Y010277D01*
X007728Y010240D01*
X005420Y010240D01*
X005420Y009178D01*
X005441Y009170D01*
X005570Y009041D01*
X005640Y008871D01*
X005640Y008088D01*
X005570Y007919D01*
X005441Y007790D01*
X005271Y007720D01*
X005088Y007720D01*
X004919Y007790D01*
X004790Y007919D01*
X004720Y008088D01*
X004720Y008871D01*
X004790Y009041D01*
X004919Y009170D01*
X004940Y009178D01*
X004940Y010575D01*
X004977Y010663D01*
X005044Y010731D01*
X005132Y010767D01*
X005228Y010767D01*
X005316Y010731D01*
X005327Y010720D01*
X007323Y010720D01*
X007323Y011169D01*
X007417Y011263D01*
X007640Y011263D01*
X007640Y014067D01*
X007628Y014062D01*
X007587Y014044D01*
X007584Y014044D01*
X007582Y014043D01*
X007537Y014043D01*
X007491Y014042D01*
X007489Y014043D01*
X007487Y014043D01*
X007445Y014060D01*
X007126Y014185D01*
X007089Y014148D01*
X007007Y014148D01*
X007007Y011932D01*
X006970Y011844D01*
X006920Y011794D01*
X006920Y011432D01*
X006883Y011344D01*
X006816Y011277D01*
X006728Y011240D01*
X003426Y011240D01*
X003484Y011183D01*
X003538Y011051D01*
X003538Y010909D01*
X003484Y010777D01*
X003420Y010714D01*
X003420Y009746D01*
X003484Y009683D01*
X003538Y009551D01*
X003538Y009409D01*
X003484Y009277D01*
X003383Y009176D01*
X003251Y009122D01*
X003109Y009122D01*
X002977Y009176D01*
X002876Y009277D01*
X002822Y009409D01*
X002822Y009551D01*
X002876Y009683D01*
X002940Y009746D01*
X002940Y010714D01*
X002876Y010777D01*
X002822Y010909D01*
X002822Y011051D01*
X002876Y011183D01*
X002934Y011240D01*
X002146Y011240D01*
X002210Y011085D01*
X002210Y010875D01*
X002129Y010680D01*
X001980Y010531D01*
X001858Y010480D01*
X001980Y010429D01*
X002129Y010280D01*
X002210Y010085D01*
X002210Y009875D01*
X002129Y009680D01*
X001980Y009531D01*
X001858Y009480D01*
X001980Y009429D01*
X002129Y009280D01*
X002210Y009085D01*
X002210Y008875D01*
X002129Y008680D01*
X001980Y008531D01*
X001858Y008480D01*
X001980Y008429D01*
X002129Y008280D01*
X002210Y008085D01*
X002210Y007875D01*
X002129Y007680D01*
X001980Y007531D01*
X001858Y007480D01*
X001980Y007429D01*
X002129Y007280D01*
X002210Y007085D01*
X002210Y006875D01*
X002129Y006680D01*
X001980Y006531D01*
X001858Y006480D01*
X001980Y006429D01*
X002129Y006280D01*
X002210Y006085D01*
X002210Y005875D01*
X002129Y005680D01*
X001980Y005531D01*
X001858Y005480D01*
X001980Y005429D01*
X002129Y005280D01*
X002210Y005085D01*
X002210Y004875D01*
X002129Y004680D01*
X002172Y004784D02*
X002240Y004784D01*
X002240Y004943D02*
X002210Y004943D01*
X002204Y005101D02*
X002240Y005101D01*
X002240Y005260D02*
X002138Y005260D01*
X002240Y005418D02*
X001992Y005418D01*
X002026Y005577D02*
X002240Y005577D01*
X002240Y005735D02*
X002152Y005735D01*
X002210Y005894D02*
X002240Y005894D01*
X002240Y006052D02*
X002210Y006052D01*
X002240Y006211D02*
X002158Y006211D01*
X002240Y006369D02*
X002041Y006369D01*
X001973Y006528D02*
X002240Y006528D01*
X002264Y006686D02*
X002132Y006686D01*
X002198Y006845D02*
X003240Y006845D01*
X003240Y007003D02*
X002210Y007003D01*
X002178Y007162D02*
X003240Y007162D01*
X003281Y007320D02*
X002090Y007320D01*
X001861Y007479D02*
X006040Y007479D01*
X006040Y007637D02*
X002087Y007637D01*
X002177Y007796D02*
X003914Y007796D01*
X003919Y007790D02*
X004088Y007720D01*
X004271Y007720D01*
X004441Y007790D01*
X004570Y007919D01*
X004640Y008088D01*
X004640Y008871D01*
X004570Y009041D01*
X004441Y009170D01*
X004271Y009240D01*
X004088Y009240D01*
X003919Y009170D01*
X003790Y009041D01*
X003720Y008871D01*
X003720Y008088D01*
X003790Y007919D01*
X003919Y007790D01*
X003776Y007954D02*
X002210Y007954D01*
X002199Y008113D02*
X003720Y008113D01*
X003720Y008271D02*
X002133Y008271D01*
X001980Y008430D02*
X003720Y008430D01*
X003720Y008588D02*
X002038Y008588D01*
X002157Y008747D02*
X003720Y008747D01*
X003734Y008905D02*
X002210Y008905D01*
X002210Y009064D02*
X003813Y009064D01*
X004045Y009222D02*
X003428Y009222D01*
X003526Y009381D02*
X004940Y009381D01*
X004940Y009539D02*
X003538Y009539D01*
X003469Y009698D02*
X004940Y009698D01*
X004940Y009856D02*
X003420Y009856D01*
X003420Y010015D02*
X004940Y010015D01*
X004940Y010173D02*
X003420Y010173D01*
X003420Y010332D02*
X004940Y010332D01*
X004940Y010490D02*
X003420Y010490D01*
X003420Y010649D02*
X004970Y010649D01*
X005180Y010527D02*
X005180Y008480D01*
X005180Y010480D01*
X007680Y010480D01*
X007680Y010527D01*
X007739Y010827D01*
X007739Y010680D01*
X007680Y010680D01*
X007680Y010580D01*
X007739Y010680D02*
X007880Y010680D01*
X007880Y015421D01*
X008180Y015421D01*
X010727Y015421D01*
X011163Y015404D02*
X012440Y015404D01*
X012440Y015528D02*
X012440Y014661D01*
X011163Y014661D01*
X011163Y014743D01*
X011069Y014837D01*
X010385Y014837D01*
X010292Y014743D01*
X010292Y014099D01*
X010385Y014005D01*
X011069Y014005D01*
X011163Y014099D01*
X011163Y014181D01*
X012728Y014181D01*
X012816Y014217D01*
X012883Y014285D01*
X012920Y014373D01*
X012920Y015240D01*
X014284Y015240D01*
X014284Y015111D01*
X014378Y015017D01*
X014982Y015017D01*
X015076Y015111D01*
X015076Y015558D01*
X014982Y015652D01*
X014848Y015652D01*
X014816Y015683D01*
X014728Y015720D01*
X012632Y015720D01*
X012544Y015683D01*
X012477Y015616D01*
X012440Y015528D01*
X012454Y015562D02*
X011163Y015562D01*
X011163Y015721D02*
X015440Y015721D01*
X015440Y015562D02*
X015072Y015562D01*
X015076Y015404D02*
X015440Y015404D01*
X015440Y015245D02*
X015076Y015245D01*
X015052Y015087D02*
X015440Y015087D01*
X015440Y014928D02*
X014998Y014928D01*
X015076Y014770D02*
X015440Y014770D01*
X015440Y014611D02*
X015076Y014611D01*
X015076Y014453D02*
X015440Y014453D01*
X015440Y014294D02*
X014920Y014294D01*
X014920Y014136D02*
X015357Y014136D01*
X015322Y013977D02*
X015022Y013977D01*
X015181Y013819D02*
X015359Y013819D01*
X015680Y013980D02*
X015680Y015980D01*
X014897Y015980D01*
X014483Y016393D01*
X014048Y016355D02*
X013888Y016355D01*
X013920Y016513D02*
X014048Y016513D01*
X014048Y016672D02*
X013920Y016672D01*
X013680Y016480D02*
X013680Y016980D01*
X018680Y016480D01*
X019016Y016355D02*
X019040Y016355D01*
X019038Y016409D02*
X019038Y016551D01*
X018984Y016683D01*
X018883Y016784D01*
X018751Y016838D01*
X018609Y016838D01*
X018477Y016784D01*
X018439Y016745D01*
X014492Y017140D01*
X019040Y017140D01*
X019040Y015732D01*
X019045Y015720D01*
X016132Y015720D01*
X016044Y015683D01*
X015977Y015616D01*
X015940Y015528D01*
X015940Y014226D01*
X015920Y014246D01*
X015920Y016028D01*
X015883Y016116D01*
X015816Y016183D01*
X015728Y016220D01*
X014996Y016220D01*
X014919Y016297D01*
X014919Y016615D01*
X018385Y016268D01*
X018477Y016176D01*
X018609Y016122D01*
X018751Y016122D01*
X018883Y016176D01*
X018984Y016277D01*
X019038Y016409D01*
X019038Y016513D02*
X019040Y016513D01*
X019040Y016672D02*
X018988Y016672D01*
X019040Y016830D02*
X018771Y016830D01*
X018589Y016830D02*
X017592Y016830D01*
X017523Y016355D02*
X014919Y016355D01*
X014919Y016513D02*
X015938Y016513D01*
X015786Y016196D02*
X018458Y016196D01*
X018902Y016196D02*
X019040Y016196D01*
X019040Y016038D02*
X015916Y016038D01*
X015920Y015879D02*
X019040Y015879D01*
X019045Y015721D02*
X015920Y015721D01*
X015920Y015562D02*
X015954Y015562D01*
X015940Y015404D02*
X015920Y015404D01*
X015920Y015245D02*
X015940Y015245D01*
X015940Y015087D02*
X015920Y015087D01*
X015920Y014928D02*
X015940Y014928D01*
X015940Y014770D02*
X015920Y014770D01*
X015920Y014611D02*
X015940Y014611D01*
X015940Y014453D02*
X015920Y014453D01*
X015920Y014294D02*
X015940Y014294D01*
X016420Y014294D02*
X020502Y014294D01*
X020357Y014136D02*
X016420Y014136D01*
X016420Y013977D02*
X020322Y013977D01*
X020359Y013819D02*
X016420Y013819D01*
X016420Y013660D02*
X020440Y013660D01*
X020440Y013502D02*
X016420Y013502D01*
X016382Y013343D02*
X020440Y013343D01*
X020440Y013185D02*
X014919Y013185D01*
X014919Y013343D02*
X014978Y013343D01*
X015180Y013480D02*
X016180Y013480D01*
X016180Y014980D01*
X016180Y015480D01*
X024180Y015480D01*
X024180Y013480D01*
X024538Y013502D02*
X024940Y013502D01*
X024940Y013660D02*
X024538Y013660D01*
X024538Y013744D02*
X024444Y013838D01*
X024420Y013838D01*
X024420Y015528D01*
X024415Y015540D01*
X024940Y015540D01*
X024940Y012746D01*
X024920Y012726D01*
X024920Y013028D01*
X024883Y013116D01*
X024816Y013183D01*
X024728Y013220D01*
X024538Y013220D01*
X024538Y013744D01*
X024464Y013819D02*
X024940Y013819D01*
X024940Y013977D02*
X024420Y013977D01*
X024420Y014136D02*
X024940Y014136D01*
X024940Y014294D02*
X024420Y014294D01*
X024420Y014453D02*
X024940Y014453D01*
X024940Y014611D02*
X024420Y014611D01*
X024420Y014770D02*
X024940Y014770D01*
X024940Y014928D02*
X024420Y014928D01*
X024420Y015087D02*
X024940Y015087D01*
X024940Y015245D02*
X024420Y015245D01*
X024420Y015404D02*
X024940Y015404D01*
X025420Y015404D02*
X026370Y015404D01*
X026370Y015562D02*
X025420Y015562D01*
X025420Y015721D02*
X026370Y015721D01*
X026370Y015879D02*
X025399Y015879D01*
X025383Y015916D02*
X025420Y015828D01*
X025420Y012746D01*
X025484Y012683D01*
X025538Y012551D01*
X025538Y012409D01*
X025484Y012277D01*
X025398Y012191D01*
X025416Y012183D01*
X025483Y012116D01*
X025520Y012028D01*
X025520Y011932D01*
X025483Y011844D01*
X025416Y011777D01*
X025328Y011740D01*
X024920Y011740D01*
X024920Y005820D01*
X025232Y005820D01*
X025328Y005820D01*
X025416Y005783D01*
X025483Y005716D01*
X025520Y005628D01*
X025520Y003182D01*
X025521Y003137D01*
X025520Y003135D01*
X025520Y003132D01*
X025503Y003090D01*
X025486Y003048D01*
X025484Y003046D01*
X025483Y003044D01*
X025451Y003012D01*
X023193Y000660D01*
X026370Y000660D01*
X026370Y018496D01*
X000660Y018496D01*
X000660Y017620D01*
X019328Y017620D01*
X019416Y017583D01*
X019483Y017516D01*
X019520Y017428D01*
X019520Y016020D01*
X025228Y016020D01*
X025316Y015983D01*
X025383Y015916D01*
X025180Y015780D02*
X025180Y012480D01*
X025457Y012709D02*
X026370Y012709D01*
X026370Y012551D02*
X025538Y012551D01*
X025531Y012392D02*
X026370Y012392D01*
X026370Y012234D02*
X025440Y012234D01*
X025500Y012075D02*
X026370Y012075D01*
X026370Y011917D02*
X025513Y011917D01*
X025371Y011758D02*
X026370Y011758D01*
X026370Y011600D02*
X024920Y011600D01*
X024920Y011441D02*
X026370Y011441D01*
X026370Y011283D02*
X024920Y011283D01*
X024920Y011124D02*
X026370Y011124D01*
X026370Y010966D02*
X024920Y010966D01*
X024920Y010807D02*
X026370Y010807D01*
X026370Y010649D02*
X024920Y010649D01*
X024920Y010490D02*
X026370Y010490D01*
X026370Y010332D02*
X024920Y010332D01*
X024920Y010173D02*
X026370Y010173D01*
X026370Y010015D02*
X026038Y010015D01*
X026038Y010044D02*
X025944Y010138D01*
X025416Y010138D01*
X025322Y010044D01*
X025322Y009516D01*
X025416Y009422D01*
X025944Y009422D01*
X026038Y009516D01*
X026038Y010044D01*
X026038Y009856D02*
X026370Y009856D01*
X026370Y009698D02*
X026038Y009698D01*
X026038Y009539D02*
X026370Y009539D01*
X026370Y009381D02*
X024920Y009381D01*
X024920Y009539D02*
X025322Y009539D01*
X025322Y009698D02*
X024920Y009698D01*
X024920Y009856D02*
X025322Y009856D01*
X025322Y010015D02*
X024920Y010015D01*
X024440Y010015D02*
X020920Y010015D01*
X020920Y010173D02*
X024440Y010173D01*
X024440Y010332D02*
X020920Y010332D01*
X020920Y010490D02*
X024440Y010490D01*
X024440Y010649D02*
X020920Y010649D01*
X020996Y010807D02*
X024440Y010807D01*
X024440Y010966D02*
X021038Y010966D01*
X021008Y011124D02*
X024440Y011124D01*
X024440Y011283D02*
X023322Y011283D01*
X023480Y011441D02*
X024440Y011441D01*
X024440Y011600D02*
X023639Y011600D01*
X023797Y011758D02*
X024440Y011758D01*
X024440Y011917D02*
X023956Y011917D01*
X024114Y012075D02*
X024440Y012075D01*
X024440Y012234D02*
X024440Y012234D01*
X024680Y011980D02*
X024680Y005580D01*
X025280Y005580D01*
X025280Y003180D01*
X022880Y000680D01*
X002180Y000680D01*
X000880Y001180D01*
X001120Y001456D02*
X001561Y001456D01*
X001799Y001456D02*
X003858Y001456D01*
X003740Y001614D02*
X002064Y001614D01*
X001680Y001980D02*
X002480Y001980D01*
X002480Y006580D01*
X003480Y006580D01*
X003480Y007180D01*
X006280Y007180D01*
X006280Y008480D01*
X006180Y008480D01*
X005720Y008430D02*
X005640Y008430D01*
X005640Y008588D02*
X005720Y008588D01*
X005720Y008747D02*
X005640Y008747D01*
X005626Y008905D02*
X005734Y008905D01*
X005813Y009064D02*
X005547Y009064D01*
X005420Y009222D02*
X006045Y009222D01*
X006315Y009222D02*
X007932Y009222D01*
X007940Y009064D02*
X006547Y009064D01*
X006626Y008905D02*
X007940Y008905D01*
X007940Y008747D02*
X006640Y008747D01*
X006640Y008588D02*
X007837Y008588D01*
X007822Y008430D02*
X006640Y008430D01*
X006640Y008271D02*
X007883Y008271D01*
X008180Y008480D02*
X008180Y009480D01*
X008428Y009222D02*
X008440Y009222D01*
X008440Y009234D02*
X008440Y008726D01*
X008420Y008746D01*
X008420Y009214D01*
X008440Y009234D01*
X008440Y009064D02*
X008420Y009064D01*
X008420Y008905D02*
X008440Y008905D01*
X008440Y008747D02*
X008420Y008747D01*
X008920Y008747D02*
X009190Y008747D01*
X009190Y008905D02*
X008920Y008905D01*
X008920Y009064D02*
X009190Y009064D01*
X009190Y009222D02*
X008920Y009222D01*
X008920Y009381D02*
X009241Y009381D01*
X009430Y009230D02*
X009430Y007980D01*
X008933Y007796D02*
X008920Y007796D01*
X008920Y007826D02*
X008981Y007680D01*
X009130Y007531D01*
X009325Y007450D01*
X009535Y007450D01*
X009730Y007531D01*
X009879Y007680D01*
X009930Y007802D01*
X009981Y007680D01*
X010130Y007531D01*
X010325Y007450D01*
X010535Y007450D01*
X010730Y007531D01*
X010879Y007680D01*
X010930Y007802D01*
X010981Y007680D01*
X011130Y007531D01*
X011325Y007450D01*
X011535Y007450D01*
X011730Y007531D01*
X011879Y007680D01*
X011960Y007875D01*
X011960Y008085D01*
X011879Y008280D01*
X011730Y008429D01*
X011535Y008510D01*
X011325Y008510D01*
X011130Y008429D01*
X010981Y008280D01*
X010930Y008158D01*
X010879Y008280D01*
X010730Y008429D01*
X010535Y008510D01*
X010325Y008510D01*
X010130Y008429D01*
X009981Y008280D01*
X009930Y008158D01*
X009879Y008280D01*
X009730Y008429D01*
X009670Y008454D01*
X009670Y008990D01*
X014228Y008990D01*
X014316Y009027D01*
X014383Y009094D01*
X014420Y009182D01*
X014420Y011740D01*
X016414Y011740D01*
X016477Y011676D01*
X016519Y011659D01*
X016477Y011616D01*
X016440Y011528D01*
X016440Y008220D01*
X014132Y008220D01*
X014044Y008183D01*
X013977Y008116D01*
X013940Y008028D01*
X013940Y007220D01*
X012404Y007220D01*
X012379Y007280D01*
X012230Y007429D01*
X012035Y007510D01*
X011825Y007510D01*
X011630Y007429D01*
X011481Y007280D01*
X011430Y007158D01*
X011379Y007280D01*
X011230Y007429D01*
X011035Y007510D01*
X010825Y007510D01*
X010630Y007429D01*
X010481Y007280D01*
X010430Y007158D01*
X010379Y007280D01*
X010230Y007429D01*
X010035Y007510D01*
X009825Y007510D01*
X009630Y007429D01*
X009481Y007280D01*
X009400Y007085D01*
X009400Y006875D01*
X009481Y006680D01*
X009630Y006531D01*
X009825Y006450D01*
X010008Y006450D01*
X011886Y005659D01*
X011929Y005641D01*
X011930Y005641D01*
X011931Y005640D01*
X011978Y005640D01*
X018810Y005544D01*
X018877Y005476D01*
X019009Y005422D01*
X019151Y005422D01*
X019283Y005476D01*
X019384Y005577D01*
X019438Y005709D01*
X019438Y005851D01*
X019384Y005983D01*
X019283Y006084D01*
X019151Y006138D01*
X019009Y006138D01*
X018877Y006084D01*
X018817Y006024D01*
X012030Y006119D01*
X011141Y006494D01*
X011230Y006531D01*
X011379Y006680D01*
X011430Y006802D01*
X011481Y006680D01*
X011630Y006531D01*
X011825Y006450D01*
X012035Y006450D01*
X012230Y006531D01*
X012379Y006680D01*
X012404Y006740D01*
X014228Y006740D01*
X014316Y006777D01*
X014383Y006844D01*
X014420Y006932D01*
X014420Y007740D01*
X016728Y007740D01*
X016816Y007777D01*
X016883Y007844D01*
X016920Y007932D01*
X016920Y011240D01*
X017263Y011240D01*
X017195Y011076D01*
X017195Y010884D01*
X017269Y010705D01*
X017405Y010569D01*
X017584Y010495D01*
X017776Y010495D01*
X017955Y010569D01*
X018091Y010705D01*
X018165Y010884D01*
X018165Y011076D01*
X018097Y011240D01*
X020434Y011240D01*
X020376Y011183D01*
X020322Y011051D01*
X020322Y010909D01*
X020376Y010777D01*
X020440Y010714D01*
X020440Y003720D01*
X019420Y003720D01*
X019420Y004214D01*
X019484Y004277D01*
X019538Y004409D01*
X019538Y004551D01*
X019484Y004683D01*
X019383Y004784D01*
X019251Y004838D01*
X019109Y004838D01*
X018977Y004784D01*
X018876Y004683D01*
X018822Y004551D01*
X018822Y004409D01*
X018876Y004277D01*
X018940Y004214D01*
X018940Y003708D01*
X013041Y003417D01*
X013112Y003436D01*
X013368Y003584D01*
X013576Y003792D01*
X013724Y004048D01*
X013800Y004333D01*
X013800Y004627D01*
X013724Y004912D01*
X013576Y005168D01*
X013368Y005376D01*
X013112Y005524D01*
X012827Y005600D01*
X012533Y005600D01*
X012248Y005524D01*
X011992Y005376D01*
X011784Y005168D01*
X011636Y004912D01*
X011560Y004627D01*
X011560Y004333D01*
X011636Y004048D01*
X011784Y003792D01*
X011992Y003584D01*
X012248Y003436D01*
X012432Y003387D01*
X011320Y003332D01*
X011320Y005560D01*
X011325Y005588D01*
X011320Y005607D01*
X011320Y005628D01*
X011309Y005653D01*
X011303Y005681D01*
X011291Y005697D01*
X011283Y005716D01*
X011264Y005736D01*
X011248Y005758D01*
X011230Y005769D01*
X011216Y005783D01*
X011190Y005794D01*
X011167Y005809D01*
X011147Y005812D01*
X011128Y005820D01*
X011100Y005820D01*
X008920Y006183D01*
X008920Y007826D01*
X008920Y007637D02*
X009023Y007637D01*
X008920Y007479D02*
X009256Y007479D01*
X009520Y007320D02*
X008920Y007320D01*
X008920Y007162D02*
X009432Y007162D01*
X009400Y007003D02*
X008920Y007003D01*
X008920Y006845D02*
X009412Y006845D01*
X009478Y006686D02*
X008920Y006686D01*
X008920Y006528D02*
X009637Y006528D01*
X010080Y006680D02*
X010080Y006980D01*
X009930Y006980D01*
X010080Y006680D02*
X011980Y005880D01*
X019080Y005780D01*
X019421Y005894D02*
X020440Y005894D01*
X020440Y006052D02*
X019314Y006052D01*
X019438Y005735D02*
X020440Y005735D01*
X020440Y005577D02*
X019383Y005577D01*
X018846Y006052D02*
X016809Y006052D01*
X016943Y006211D02*
X011814Y006211D01*
X011437Y006369D02*
X016838Y006369D01*
X016822Y006409D02*
X016876Y006277D01*
X016977Y006176D01*
X017109Y006122D01*
X017251Y006122D01*
X017383Y006176D01*
X017446Y006240D01*
X018656Y006240D01*
X018680Y006235D01*
X018704Y006240D01*
X018728Y006240D01*
X018750Y006249D01*
X018773Y006254D01*
X018794Y006267D01*
X018816Y006277D01*
X018833Y006293D01*
X019188Y006530D01*
X019209Y006522D01*
X019351Y006522D01*
X019483Y006576D01*
X019584Y006677D01*
X019638Y006809D01*
X019638Y006951D01*
X019584Y007083D01*
X019483Y007184D01*
X019417Y007211D01*
X019484Y007277D01*
X019538Y007409D01*
X019538Y007551D01*
X019484Y007683D01*
X019383Y007784D01*
X019251Y007838D01*
X019109Y007838D01*
X018977Y007784D01*
X018876Y007683D01*
X018822Y007551D01*
X018822Y007461D01*
X018581Y007220D01*
X017446Y007220D01*
X017383Y007284D01*
X017251Y007338D01*
X017109Y007338D01*
X016977Y007284D01*
X016876Y007183D01*
X016822Y007051D01*
X016822Y006909D01*
X016876Y006777D01*
X016924Y006730D01*
X016876Y006683D01*
X016822Y006551D01*
X016822Y006409D01*
X016822Y006528D02*
X012223Y006528D01*
X012382Y006686D02*
X016880Y006686D01*
X016849Y006845D02*
X014384Y006845D01*
X014420Y007003D02*
X016822Y007003D01*
X016868Y007162D02*
X014420Y007162D01*
X014420Y007320D02*
X017065Y007320D01*
X017295Y007320D02*
X018681Y007320D01*
X018822Y007479D02*
X014420Y007479D01*
X014420Y007637D02*
X018857Y007637D01*
X019006Y007796D02*
X016835Y007796D01*
X016920Y007954D02*
X020440Y007954D01*
X020440Y007796D02*
X019354Y007796D01*
X019503Y007637D02*
X020440Y007637D01*
X020440Y007479D02*
X019538Y007479D01*
X019501Y007320D02*
X020440Y007320D01*
X020440Y007162D02*
X019505Y007162D01*
X019617Y007003D02*
X020440Y007003D01*
X020440Y006845D02*
X019638Y006845D01*
X019587Y006686D02*
X020440Y006686D01*
X020440Y006528D02*
X019365Y006528D01*
X019195Y006528D02*
X019184Y006528D01*
X018946Y006369D02*
X020440Y006369D01*
X020440Y006211D02*
X017417Y006211D01*
X017180Y006480D02*
X018680Y006480D01*
X019280Y006880D01*
X018680Y006980D02*
X017180Y006980D01*
X017436Y006730D02*
X017446Y006740D01*
X018637Y006740D01*
X018607Y006720D01*
X017446Y006720D01*
X017436Y006730D01*
X018680Y006980D02*
X019180Y007480D01*
X020440Y008113D02*
X016920Y008113D01*
X016920Y008271D02*
X020440Y008271D01*
X020440Y008430D02*
X016920Y008430D01*
X016920Y008588D02*
X017386Y008588D01*
X017405Y008569D02*
X017584Y008495D01*
X017776Y008495D01*
X017955Y008569D01*
X018091Y008705D01*
X018165Y008884D01*
X018165Y009076D01*
X018091Y009255D01*
X017955Y009391D01*
X017776Y009465D01*
X017584Y009465D01*
X017405Y009391D01*
X017269Y009255D01*
X017195Y009076D01*
X017195Y008884D01*
X017269Y008705D01*
X017405Y008569D01*
X017252Y008747D02*
X016920Y008747D01*
X016920Y008905D02*
X017195Y008905D01*
X017195Y009064D02*
X016920Y009064D01*
X016920Y009222D02*
X017255Y009222D01*
X017395Y009381D02*
X016920Y009381D01*
X016920Y009539D02*
X020440Y009539D01*
X020440Y009381D02*
X017965Y009381D01*
X018105Y009222D02*
X020440Y009222D01*
X020440Y009064D02*
X018165Y009064D01*
X018165Y008905D02*
X020440Y008905D01*
X020440Y008747D02*
X018108Y008747D01*
X017974Y008588D02*
X020440Y008588D01*
X020920Y008588D02*
X024440Y008588D01*
X024440Y008430D02*
X020920Y008430D01*
X020920Y008271D02*
X024440Y008271D01*
X024440Y008113D02*
X020920Y008113D01*
X020920Y007954D02*
X024440Y007954D01*
X024440Y007796D02*
X023154Y007796D01*
X023303Y007637D02*
X024440Y007637D01*
X024440Y007479D02*
X023338Y007479D01*
X023301Y007320D02*
X024440Y007320D01*
X024440Y007162D02*
X023147Y007162D01*
X022813Y007162D02*
X021520Y007162D01*
X021520Y007003D02*
X024440Y007003D01*
X024440Y006845D02*
X021520Y006845D01*
X021520Y006686D02*
X024440Y006686D01*
X024440Y006528D02*
X021520Y006528D01*
X021520Y006369D02*
X022963Y006369D01*
X022977Y006384D02*
X022876Y006283D01*
X022822Y006151D01*
X022822Y006009D01*
X022876Y005877D01*
X022940Y005814D01*
X022940Y004932D01*
X022977Y004844D01*
X023044Y004777D01*
X023132Y004740D01*
X024414Y004740D01*
X024477Y004676D01*
X024609Y004622D01*
X024751Y004622D01*
X024883Y004676D01*
X024984Y004777D01*
X025038Y004909D01*
X025038Y005051D01*
X024984Y005183D01*
X024883Y005284D01*
X024751Y005338D01*
X024609Y005338D01*
X024477Y005284D01*
X024414Y005220D01*
X023420Y005220D01*
X023420Y005814D01*
X023484Y005877D01*
X023538Y006009D01*
X023538Y006151D01*
X023484Y006283D01*
X023383Y006384D01*
X023251Y006438D01*
X023109Y006438D01*
X022977Y006384D01*
X022846Y006211D02*
X021520Y006211D01*
X021520Y006052D02*
X022822Y006052D01*
X022870Y005894D02*
X021520Y005894D01*
X021520Y005735D02*
X022940Y005735D01*
X022940Y005577D02*
X021497Y005577D01*
X021324Y005418D02*
X022940Y005418D01*
X022940Y005260D02*
X020920Y005260D01*
X020920Y005101D02*
X022940Y005101D01*
X022940Y004943D02*
X020920Y004943D01*
X020920Y004784D02*
X023037Y004784D01*
X023180Y004980D02*
X023180Y006080D01*
X023514Y006211D02*
X024440Y006211D01*
X024440Y006369D02*
X023397Y006369D01*
X023538Y006052D02*
X024440Y006052D01*
X024440Y005894D02*
X023490Y005894D01*
X023420Y005735D02*
X024440Y005735D01*
X024440Y005577D02*
X023420Y005577D01*
X023420Y005418D02*
X024503Y005418D01*
X024453Y005260D02*
X023420Y005260D01*
X023180Y004980D02*
X024580Y004980D01*
X024600Y004626D02*
X020920Y004626D01*
X020920Y004467D02*
X025040Y004467D01*
X025040Y004309D02*
X024323Y004309D01*
X024497Y004150D02*
X025040Y004150D01*
X025040Y003992D02*
X024538Y003992D01*
X024507Y003833D02*
X025040Y003833D01*
X025040Y003675D02*
X024420Y003675D01*
X024420Y003516D02*
X025040Y003516D01*
X025040Y003358D02*
X024389Y003358D01*
X024180Y003480D02*
X024180Y003980D01*
X023853Y003833D02*
X022807Y003833D01*
X022838Y003992D02*
X023822Y003992D01*
X023863Y004150D02*
X022797Y004150D01*
X022623Y004309D02*
X024037Y004309D01*
X024760Y004626D02*
X025040Y004626D01*
X025040Y004784D02*
X024986Y004784D01*
X025038Y004943D02*
X025040Y004943D01*
X025040Y005101D02*
X025017Y005101D01*
X025040Y005260D02*
X024907Y005260D01*
X025520Y005260D02*
X026370Y005260D01*
X026370Y005418D02*
X025520Y005418D01*
X025520Y005577D02*
X026370Y005577D01*
X026370Y005735D02*
X025464Y005735D01*
X024920Y005894D02*
X026370Y005894D01*
X026370Y006052D02*
X024920Y006052D01*
X024920Y006211D02*
X026370Y006211D01*
X026370Y006369D02*
X024920Y006369D01*
X024920Y006528D02*
X026370Y006528D01*
X026370Y006686D02*
X026009Y006686D01*
X026038Y006716D02*
X025944Y006622D01*
X025416Y006622D01*
X025322Y006716D01*
X025322Y007244D01*
X025416Y007338D01*
X025944Y007338D01*
X026038Y007244D01*
X026038Y006716D01*
X026038Y006845D02*
X026370Y006845D01*
X026370Y007003D02*
X026038Y007003D01*
X026038Y007162D02*
X026370Y007162D01*
X026370Y007320D02*
X025962Y007320D01*
X026370Y007479D02*
X024920Y007479D01*
X024920Y007637D02*
X026370Y007637D01*
X026370Y007796D02*
X024920Y007796D01*
X024920Y007954D02*
X026370Y007954D01*
X026370Y008113D02*
X024920Y008113D01*
X024920Y008271D02*
X026370Y008271D01*
X026370Y008430D02*
X024920Y008430D01*
X024920Y008588D02*
X026370Y008588D01*
X026370Y008747D02*
X024920Y008747D01*
X024920Y008905D02*
X026370Y008905D01*
X026370Y009064D02*
X024920Y009064D01*
X024920Y009222D02*
X026370Y009222D01*
X024440Y009222D02*
X020920Y009222D01*
X020920Y009064D02*
X024440Y009064D01*
X024440Y008905D02*
X020920Y008905D01*
X020920Y008747D02*
X024440Y008747D01*
X024440Y009381D02*
X020920Y009381D01*
X020920Y009539D02*
X024440Y009539D01*
X024440Y009698D02*
X020920Y009698D01*
X020920Y009856D02*
X024440Y009856D01*
X023180Y011480D02*
X016680Y011480D01*
X016680Y007980D01*
X014180Y007980D01*
X014180Y006980D01*
X011930Y006980D01*
X011432Y007162D02*
X011428Y007162D01*
X011340Y007320D02*
X011520Y007320D01*
X011604Y007479D02*
X011749Y007479D01*
X011837Y007637D02*
X013940Y007637D01*
X013940Y007479D02*
X012111Y007479D01*
X012340Y007320D02*
X013940Y007320D01*
X013940Y007796D02*
X011927Y007796D01*
X011960Y007954D02*
X013940Y007954D01*
X013975Y008113D02*
X011949Y008113D01*
X011883Y008271D02*
X016440Y008271D01*
X016440Y008430D02*
X011730Y008430D01*
X011130Y008430D02*
X010730Y008430D01*
X010883Y008271D02*
X010977Y008271D01*
X010927Y007796D02*
X010933Y007796D01*
X011023Y007637D02*
X010837Y007637D01*
X010749Y007479D02*
X010604Y007479D01*
X010520Y007320D02*
X010340Y007320D01*
X010256Y007479D02*
X010111Y007479D01*
X010023Y007637D02*
X009837Y007637D01*
X009749Y007479D02*
X009604Y007479D01*
X009927Y007796D02*
X009933Y007796D01*
X009883Y008271D02*
X009977Y008271D01*
X010130Y008430D02*
X009730Y008430D01*
X009670Y008588D02*
X016440Y008588D01*
X016440Y008747D02*
X009670Y008747D01*
X009670Y008905D02*
X016440Y008905D01*
X016440Y009064D02*
X014353Y009064D01*
X014420Y009222D02*
X016440Y009222D01*
X016440Y009381D02*
X014420Y009381D01*
X014420Y009539D02*
X016440Y009539D01*
X016440Y009698D02*
X014420Y009698D01*
X014420Y009856D02*
X016440Y009856D01*
X016440Y010015D02*
X014420Y010015D01*
X014420Y010173D02*
X016440Y010173D01*
X016440Y010332D02*
X014420Y010332D01*
X014420Y010490D02*
X016440Y010490D01*
X016440Y010649D02*
X014420Y010649D01*
X014420Y010807D02*
X016440Y010807D01*
X016440Y010966D02*
X014420Y010966D01*
X014420Y011124D02*
X016440Y011124D01*
X016440Y011283D02*
X014420Y011283D01*
X014420Y011441D02*
X016440Y011441D01*
X016470Y011600D02*
X014420Y011600D01*
X014180Y011980D02*
X016680Y011980D01*
X016926Y011720D02*
X016984Y011777D01*
X017038Y011909D01*
X017038Y012051D01*
X016987Y012174D01*
X021917Y012237D01*
X021977Y012176D01*
X022109Y012122D01*
X022251Y012122D01*
X022383Y012176D01*
X022484Y012277D01*
X022538Y012409D01*
X022538Y012551D01*
X022484Y012683D01*
X022426Y012740D01*
X023934Y012740D01*
X023876Y012683D01*
X023822Y012551D01*
X023822Y012461D01*
X023081Y011720D01*
X016926Y011720D01*
X016964Y011758D02*
X023119Y011758D01*
X023277Y011917D02*
X017038Y011917D01*
X017028Y012075D02*
X023436Y012075D01*
X023594Y012234D02*
X022440Y012234D01*
X022531Y012392D02*
X023753Y012392D01*
X023822Y012551D02*
X022538Y012551D01*
X022457Y012709D02*
X023903Y012709D01*
X024180Y012480D02*
X023180Y011480D01*
X021920Y012234D02*
X021670Y012234D01*
X022180Y012480D02*
X010680Y012334D01*
X010284Y012392D02*
X008120Y012392D01*
X008120Y012234D02*
X010284Y012234D01*
X010319Y012075D02*
X008120Y012075D01*
X008120Y011917D02*
X010351Y011917D01*
X010284Y011758D02*
X008120Y011758D01*
X008120Y011600D02*
X008970Y011600D01*
X008940Y011441D02*
X008120Y011441D01*
X008120Y011283D02*
X008940Y011283D01*
X009180Y011480D02*
X010680Y011480D01*
X010680Y011626D01*
X011076Y011600D02*
X013940Y011600D01*
X013940Y011758D02*
X011076Y011758D01*
X011009Y011917D02*
X013940Y011917D01*
X013960Y012075D02*
X011041Y012075D01*
X010284Y012551D02*
X008120Y012551D01*
X008120Y012709D02*
X021312Y012709D01*
X020680Y012980D02*
X024680Y012980D01*
X024680Y011980D01*
X025280Y011980D01*
X024934Y012220D02*
X024920Y012220D01*
X024920Y012234D01*
X024934Y012220D01*
X024920Y012234D02*
X024920Y012234D01*
X024440Y012726D02*
X024426Y012740D01*
X024440Y012740D01*
X024440Y012726D01*
X024920Y012868D02*
X024940Y012868D01*
X024940Y013026D02*
X024920Y013026D01*
X024940Y013185D02*
X024813Y013185D01*
X024940Y013343D02*
X024538Y013343D01*
X023822Y013343D02*
X020920Y013343D01*
X020920Y013502D02*
X023822Y013502D01*
X023822Y013660D02*
X020920Y013660D01*
X021001Y013819D02*
X023896Y013819D01*
X023940Y013977D02*
X021038Y013977D01*
X021003Y014136D02*
X023940Y014136D01*
X023940Y014294D02*
X020858Y014294D01*
X020680Y013980D02*
X020680Y012980D01*
X020467Y012868D02*
X008120Y012868D01*
X008120Y013026D02*
X014093Y013026D01*
X014048Y013185D02*
X009891Y013185D01*
X009883Y013176D02*
X009984Y013277D01*
X010038Y013409D01*
X010038Y013551D01*
X009984Y013683D01*
X009920Y013746D01*
X009920Y014148D01*
X010089Y014148D01*
X010183Y014241D01*
X010183Y014925D01*
X010089Y015019D01*
X009444Y015019D01*
X009351Y014925D01*
X009351Y014241D01*
X009440Y014152D01*
X009440Y013746D01*
X009376Y013683D01*
X009322Y013551D01*
X009322Y013409D01*
X009376Y013277D01*
X009477Y013176D01*
X009609Y013122D01*
X009751Y013122D01*
X009883Y013176D01*
X010011Y013343D02*
X014048Y013343D01*
X013928Y013502D02*
X010038Y013502D01*
X009993Y013660D02*
X013517Y013660D01*
X013359Y013819D02*
X009920Y013819D01*
X009920Y013977D02*
X013322Y013977D01*
X013357Y014136D02*
X011163Y014136D01*
X010727Y014421D02*
X012680Y014421D01*
X012680Y015480D01*
X014680Y015480D01*
X014680Y015334D01*
X014308Y015087D02*
X012920Y015087D01*
X012920Y014928D02*
X014362Y014928D01*
X014284Y014770D02*
X012920Y014770D01*
X012920Y014611D02*
X014284Y014611D01*
X014284Y014453D02*
X012920Y014453D01*
X012887Y014294D02*
X013502Y014294D01*
X013858Y014294D02*
X014440Y014294D01*
X014440Y014136D02*
X014003Y014136D01*
X014091Y013977D02*
X014440Y013977D01*
X014502Y013819D02*
X014308Y013819D01*
X014680Y013980D02*
X015180Y013480D01*
X014680Y013980D02*
X014680Y014626D01*
X013680Y013980D02*
X014483Y013393D01*
X014874Y013026D02*
X020440Y013026D01*
X020352Y011124D02*
X018145Y011124D01*
X018165Y010966D02*
X020322Y010966D01*
X020364Y010807D02*
X018133Y010807D01*
X018034Y010649D02*
X020440Y010649D01*
X020440Y010490D02*
X016920Y010490D01*
X016920Y010332D02*
X020440Y010332D01*
X020440Y010173D02*
X016920Y010173D01*
X016920Y010015D02*
X020440Y010015D01*
X020440Y009856D02*
X016920Y009856D01*
X016920Y009698D02*
X020440Y009698D01*
X020680Y010980D02*
X020680Y003480D01*
X019180Y003480D01*
X019180Y004480D01*
X018853Y004626D02*
X013800Y004626D01*
X013800Y004467D02*
X018822Y004467D01*
X018863Y004309D02*
X013794Y004309D01*
X013751Y004150D02*
X018940Y004150D01*
X018940Y003992D02*
X013691Y003992D01*
X013600Y003833D02*
X018940Y003833D01*
X019180Y003480D02*
X011080Y003080D01*
X011080Y005580D01*
X008680Y005980D01*
X008680Y010527D01*
X008739Y010827D02*
X009180Y010527D01*
X009180Y011480D01*
X009420Y011124D02*
X012422Y011124D01*
X012422Y011144D02*
X012422Y010616D01*
X012516Y010522D01*
X013044Y010522D01*
X013138Y010616D01*
X013138Y011144D01*
X013044Y011238D01*
X012516Y011238D01*
X012422Y011144D01*
X012422Y010966D02*
X009420Y010966D01*
X009420Y010807D02*
X012422Y010807D01*
X012422Y010649D02*
X009420Y010649D01*
X009420Y010490D02*
X013940Y010490D01*
X013940Y010332D02*
X009324Y010332D01*
X009036Y010332D02*
X008920Y010332D01*
X008920Y010173D02*
X013940Y010173D01*
X013940Y010015D02*
X008920Y010015D01*
X008920Y009856D02*
X013940Y009856D01*
X013940Y009698D02*
X008920Y009698D01*
X008920Y009539D02*
X013940Y009539D01*
X014180Y009230D02*
X009430Y009230D01*
X008440Y009856D02*
X005420Y009856D01*
X005420Y009698D02*
X007891Y009698D01*
X007822Y009539D02*
X005420Y009539D01*
X005420Y009381D02*
X007834Y009381D01*
X008440Y010015D02*
X005420Y010015D01*
X005420Y010173D02*
X008440Y010173D01*
X008440Y010332D02*
X007871Y010332D01*
X008155Y010490D02*
X008323Y010490D01*
X008323Y010649D02*
X008155Y010649D01*
X008155Y010807D02*
X008323Y010807D01*
X008323Y010966D02*
X008155Y010966D01*
X008155Y011124D02*
X008323Y011124D01*
X007640Y011283D02*
X006822Y011283D01*
X006920Y011441D02*
X007640Y011441D01*
X007640Y011600D02*
X006920Y011600D01*
X006920Y011758D02*
X007640Y011758D01*
X007640Y011917D02*
X007000Y011917D01*
X007007Y012075D02*
X007640Y012075D01*
X007640Y012234D02*
X007007Y012234D01*
X007007Y012392D02*
X007640Y012392D01*
X007640Y012551D02*
X007007Y012551D01*
X007007Y012709D02*
X007640Y012709D01*
X007640Y012868D02*
X007007Y012868D01*
X007007Y013026D02*
X007640Y013026D01*
X007640Y013185D02*
X007007Y013185D01*
X007007Y013343D02*
X007640Y013343D01*
X007640Y013502D02*
X007007Y013502D01*
X007007Y013660D02*
X007640Y013660D01*
X007640Y013819D02*
X007007Y013819D01*
X007007Y013977D02*
X007640Y013977D01*
X007534Y014283D02*
X007534Y015980D01*
X007217Y016038D02*
X007143Y016038D01*
X007143Y016196D02*
X007217Y016196D01*
X007217Y016240D02*
X007217Y015678D01*
X007294Y015600D01*
X007294Y014635D01*
X007183Y014678D01*
X007183Y014925D01*
X007089Y015019D01*
X006444Y015019D01*
X006420Y014994D01*
X006420Y016214D01*
X006484Y016277D01*
X006538Y016409D01*
X006538Y016551D01*
X006484Y016683D01*
X006426Y016740D01*
X006586Y016740D01*
X006586Y016360D01*
X006508Y016282D01*
X006508Y015678D01*
X006602Y015584D01*
X007049Y015584D01*
X007143Y015678D01*
X007143Y016240D01*
X007217Y016240D01*
X006826Y016480D02*
X006826Y015980D01*
X006508Y016038D02*
X006420Y016038D01*
X006420Y016196D02*
X006508Y016196D01*
X006516Y016355D02*
X006580Y016355D01*
X006586Y016513D02*
X006538Y016513D01*
X006488Y016672D02*
X006586Y016672D01*
X006826Y016480D02*
X009180Y016480D01*
X013680Y016480D01*
X013440Y016720D02*
X009228Y016720D01*
X007066Y016720D01*
X007066Y017028D01*
X007029Y017116D01*
X007005Y017140D01*
X013497Y017140D01*
X013491Y017136D01*
X013485Y017125D01*
X013477Y017116D01*
X013463Y017083D01*
X013446Y017051D01*
X013445Y017039D01*
X013440Y017028D01*
X013440Y016992D01*
X013436Y016956D01*
X013440Y016945D01*
X013440Y016720D01*
X013440Y016830D02*
X007066Y016830D01*
X007066Y016989D02*
X013440Y016989D01*
X014048Y016196D02*
X009420Y016196D01*
X009420Y016038D02*
X014081Y016038D01*
X014658Y015879D02*
X009398Y015879D01*
X009352Y015721D02*
X010292Y015721D01*
X011163Y015245D02*
X012440Y015245D01*
X012440Y015087D02*
X011151Y015087D01*
X011136Y014770D02*
X012440Y014770D01*
X012440Y014928D02*
X010180Y014928D01*
X010183Y014770D02*
X010318Y014770D01*
X010292Y014611D02*
X010183Y014611D01*
X010183Y014453D02*
X010292Y014453D01*
X010292Y014294D02*
X010183Y014294D01*
X010292Y014136D02*
X009920Y014136D01*
X009680Y014283D02*
X009680Y013480D01*
X009349Y013343D02*
X008120Y013343D01*
X008120Y013185D02*
X009469Y013185D01*
X009322Y013502D02*
X008120Y013502D01*
X008120Y013660D02*
X009367Y013660D01*
X009440Y013819D02*
X008120Y013819D01*
X008120Y013977D02*
X009440Y013977D01*
X009440Y014136D02*
X008120Y014136D01*
X008120Y014294D02*
X009351Y014294D01*
X009351Y014453D02*
X008120Y014453D01*
X008120Y014611D02*
X009351Y014611D01*
X009351Y014770D02*
X008120Y014770D01*
X008120Y014928D02*
X009354Y014928D01*
X009767Y014583D02*
X009680Y014283D01*
X010304Y015087D02*
X008120Y015087D01*
X008180Y015421D02*
X008180Y015980D01*
X008326Y015980D01*
X008643Y016038D02*
X008717Y016038D01*
X008717Y016196D02*
X008643Y016196D01*
X008643Y016240D02*
X008717Y016240D01*
X008717Y015678D01*
X008733Y015661D01*
X008627Y015661D01*
X008643Y015678D01*
X008643Y016240D01*
X008643Y015879D02*
X008717Y015879D01*
X008717Y015721D02*
X008643Y015721D01*
X009034Y015980D02*
X009180Y015980D01*
X009180Y016480D01*
X008008Y016240D02*
X008008Y016148D01*
X007977Y016116D01*
X007940Y016028D01*
X007940Y015661D01*
X007835Y015661D01*
X007852Y015678D01*
X007852Y016240D01*
X008008Y016240D01*
X008008Y016196D02*
X007852Y016196D01*
X007852Y016038D02*
X007944Y016038D01*
X007940Y015879D02*
X007852Y015879D01*
X007852Y015721D02*
X007940Y015721D01*
X007294Y015562D02*
X006420Y015562D01*
X006420Y015404D02*
X007294Y015404D01*
X007294Y015245D02*
X006420Y015245D01*
X006420Y015087D02*
X007294Y015087D01*
X007294Y014928D02*
X007180Y014928D01*
X007183Y014770D02*
X007294Y014770D01*
X007534Y014283D02*
X006767Y014583D01*
X006767Y011980D01*
X006680Y011893D01*
X006680Y011480D01*
X002180Y011480D01*
X001680Y011980D01*
X002149Y012234D02*
X002596Y012234D01*
X002590Y012249D02*
X002603Y012218D01*
X002822Y011999D01*
X002822Y011909D01*
X002876Y011777D01*
X002934Y011720D01*
X002279Y011720D01*
X002185Y011814D01*
X002210Y011875D01*
X002210Y012085D01*
X002129Y012280D01*
X001980Y012429D01*
X001858Y012480D01*
X001980Y012531D01*
X002129Y012680D01*
X002154Y012740D01*
X002489Y012740D01*
X002489Y012343D01*
X002582Y012249D01*
X002590Y012249D01*
X002489Y012392D02*
X002018Y012392D01*
X002000Y012551D02*
X002489Y012551D01*
X002489Y012709D02*
X002141Y012709D01*
X001680Y012980D02*
X003180Y012980D01*
X003180Y013413D01*
X003497Y013343D02*
X003784Y013343D01*
X003784Y013185D02*
X003497Y013185D01*
X003497Y013170D02*
X003497Y013657D01*
X003414Y013740D01*
X004161Y013740D01*
X004183Y013749D01*
X004455Y013749D01*
X004549Y013843D01*
X004549Y014369D01*
X004455Y014463D01*
X003771Y014463D01*
X003683Y014374D01*
X003683Y014586D01*
X003771Y014497D01*
X004455Y014497D01*
X004549Y014591D01*
X004549Y014614D01*
X004808Y014614D01*
X004838Y014610D01*
X004855Y014614D01*
X004873Y014614D01*
X004901Y014626D01*
X005028Y014658D01*
X005102Y014584D01*
X005549Y014584D01*
X005643Y014678D01*
X005643Y015282D01*
X005549Y015376D01*
X005102Y015376D01*
X005008Y015282D01*
X005008Y015148D01*
X004796Y015094D01*
X004549Y015094D01*
X004549Y015117D01*
X004455Y015211D01*
X003771Y015211D01*
X003677Y015117D01*
X003677Y014748D01*
X003589Y014837D01*
X003546Y014837D01*
X003546Y015265D01*
X003623Y015343D01*
X003623Y015740D01*
X003728Y015740D01*
X003737Y015744D01*
X003737Y015343D01*
X003830Y015249D01*
X004278Y015249D01*
X004371Y015343D01*
X004371Y015346D01*
X004873Y015346D01*
X004962Y015383D01*
X005029Y015450D01*
X005066Y015539D01*
X005066Y015600D01*
X005143Y015678D01*
X005143Y016282D01*
X005049Y016376D01*
X004602Y016376D01*
X004508Y016282D01*
X004508Y015826D01*
X004371Y015826D01*
X004371Y015830D01*
X004278Y015923D01*
X003916Y015923D01*
X003920Y015932D01*
X003920Y016092D01*
X003997Y016170D01*
X003997Y016657D01*
X003914Y016740D01*
X005934Y016740D01*
X005876Y016683D01*
X005822Y016551D01*
X005822Y016409D01*
X005876Y016277D01*
X005934Y016220D01*
X005852Y016220D01*
X005852Y016282D01*
X005758Y016376D01*
X005311Y016376D01*
X005217Y016282D01*
X005217Y015678D01*
X005311Y015584D01*
X005758Y015584D01*
X005852Y015678D01*
X005852Y015740D01*
X005940Y015740D01*
X005940Y015376D01*
X005811Y015376D01*
X005717Y015282D01*
X005717Y014678D01*
X005811Y014584D01*
X006258Y014584D01*
X006351Y014676D01*
X006351Y014241D01*
X006444Y014148D01*
X006527Y014148D01*
X006527Y012079D01*
X006477Y012029D01*
X006440Y011941D01*
X006440Y011720D01*
X003426Y011720D01*
X003484Y011777D01*
X003538Y011909D01*
X003538Y012051D01*
X003484Y012183D01*
X003417Y012249D01*
X003778Y012249D01*
X003857Y012329D01*
X003878Y012308D01*
X004482Y012308D01*
X004576Y012402D01*
X004576Y012849D01*
X004482Y012943D01*
X003878Y012943D01*
X003818Y012883D01*
X003778Y012923D01*
X003416Y012923D01*
X003420Y012932D01*
X003420Y013092D01*
X003497Y013170D01*
X003420Y013026D02*
X003868Y013026D01*
X003878Y013017D02*
X003784Y013111D01*
X003784Y013558D01*
X003878Y013652D01*
X004482Y013652D01*
X004509Y013625D01*
X005116Y013713D01*
X005132Y013720D01*
X005163Y013720D01*
X005193Y013724D01*
X005210Y013720D01*
X005414Y013720D01*
X005477Y013784D01*
X005609Y013838D01*
X005751Y013838D01*
X005883Y013784D01*
X005984Y013683D01*
X006038Y013551D01*
X006038Y013409D01*
X005984Y013277D01*
X005883Y013176D01*
X005751Y013122D01*
X005609Y013122D01*
X005477Y013176D01*
X005414Y013240D01*
X005197Y013240D01*
X004576Y013150D01*
X004576Y013111D01*
X004482Y013017D01*
X003878Y013017D01*
X004180Y013334D02*
X005180Y013480D01*
X005680Y013480D01*
X006011Y013343D02*
X006527Y013343D01*
X006527Y013185D02*
X005891Y013185D01*
X005469Y013185D02*
X004817Y013185D01*
X004492Y013026D02*
X006527Y013026D01*
X006527Y012868D02*
X004558Y012868D01*
X004576Y012709D02*
X006527Y012709D01*
X006527Y012551D02*
X004576Y012551D01*
X004566Y012392D02*
X006527Y012392D01*
X006527Y012234D02*
X003433Y012234D01*
X003528Y012075D02*
X006522Y012075D01*
X006440Y011917D02*
X003538Y011917D01*
X003464Y011758D02*
X006440Y011758D01*
X007323Y011124D02*
X003508Y011124D01*
X003538Y010966D02*
X007323Y010966D01*
X007323Y010807D02*
X003496Y010807D01*
X003180Y010980D02*
X003180Y009480D01*
X002932Y009222D02*
X002153Y009222D01*
X002029Y009381D02*
X002834Y009381D01*
X002822Y009539D02*
X001989Y009539D01*
X002137Y009698D02*
X002891Y009698D01*
X002940Y009856D02*
X002202Y009856D01*
X002210Y010015D02*
X002940Y010015D01*
X002940Y010173D02*
X002174Y010173D01*
X002078Y010332D02*
X002940Y010332D01*
X002940Y010490D02*
X001882Y010490D01*
X002098Y010649D02*
X002940Y010649D01*
X002864Y010807D02*
X002182Y010807D01*
X002210Y010966D02*
X002822Y010966D01*
X002852Y011124D02*
X002194Y011124D01*
X001680Y010980D02*
X000680Y010980D01*
X000680Y017380D01*
X019280Y017380D01*
X019280Y015780D01*
X025180Y015780D01*
X025420Y015245D02*
X026370Y015245D01*
X026370Y015087D02*
X025420Y015087D01*
X025420Y014928D02*
X026370Y014928D01*
X026370Y014770D02*
X025420Y014770D01*
X025420Y014611D02*
X026370Y014611D01*
X026370Y014453D02*
X025420Y014453D01*
X025420Y014294D02*
X026370Y014294D01*
X026370Y014136D02*
X025420Y014136D01*
X025420Y013977D02*
X026370Y013977D01*
X026370Y013819D02*
X025420Y013819D01*
X025420Y013660D02*
X026370Y013660D01*
X026370Y013502D02*
X025420Y013502D01*
X025420Y013343D02*
X026370Y013343D01*
X026370Y013185D02*
X025420Y013185D01*
X025420Y013026D02*
X026370Y013026D01*
X026370Y012868D02*
X025420Y012868D01*
X023940Y014453D02*
X016420Y014453D01*
X016420Y014611D02*
X023940Y014611D01*
X023940Y014770D02*
X016420Y014770D01*
X016420Y014928D02*
X023940Y014928D01*
X023940Y015087D02*
X016420Y015087D01*
X015940Y013734D02*
X015940Y013720D01*
X015926Y013720D01*
X015940Y013734D01*
X014180Y011980D02*
X014180Y009230D01*
X013940Y010649D02*
X013138Y010649D01*
X013138Y010807D02*
X013940Y010807D01*
X013940Y010966D02*
X013138Y010966D01*
X013138Y011124D02*
X013940Y011124D01*
X013940Y011283D02*
X010822Y011283D01*
X011076Y011441D02*
X013940Y011441D01*
X016920Y011124D02*
X017215Y011124D01*
X017195Y010966D02*
X016920Y010966D01*
X016920Y010807D02*
X017227Y010807D01*
X017326Y010649D02*
X016920Y010649D01*
X020920Y007796D02*
X022806Y007796D01*
X022980Y007480D02*
X021280Y007480D01*
X021280Y005680D01*
X021080Y005680D01*
X021040Y006052D02*
X020920Y006052D01*
X020920Y006211D02*
X021040Y006211D01*
X021040Y006369D02*
X020920Y006369D01*
X020920Y006528D02*
X021040Y006528D01*
X021040Y006686D02*
X020920Y006686D01*
X020920Y006845D02*
X021040Y006845D01*
X021040Y007003D02*
X020920Y007003D01*
X020920Y007162D02*
X021040Y007162D01*
X021040Y007320D02*
X020920Y007320D01*
X020920Y007479D02*
X021040Y007479D01*
X021098Y007637D02*
X020920Y007637D01*
X020440Y005418D02*
X013295Y005418D01*
X013484Y005260D02*
X020440Y005260D01*
X020440Y005101D02*
X013615Y005101D01*
X013706Y004943D02*
X020440Y004943D01*
X020440Y004784D02*
X019382Y004784D01*
X019507Y004626D02*
X020440Y004626D01*
X020440Y004467D02*
X019538Y004467D01*
X019497Y004309D02*
X020440Y004309D01*
X020440Y004150D02*
X019420Y004150D01*
X019420Y003992D02*
X020440Y003992D01*
X020440Y003833D02*
X019420Y003833D01*
X018978Y004784D02*
X013758Y004784D01*
X013458Y003675D02*
X018253Y003675D01*
X018356Y003199D02*
X024966Y003199D01*
X024813Y003041D02*
X015146Y003041D01*
X015043Y003516D02*
X013250Y003516D01*
X012110Y003516D02*
X011320Y003516D01*
X011320Y003358D02*
X011834Y003358D01*
X011902Y003675D02*
X011320Y003675D01*
X011320Y003833D02*
X011760Y003833D01*
X011669Y003992D02*
X011320Y003992D01*
X011320Y004150D02*
X011609Y004150D01*
X011566Y004309D02*
X011320Y004309D01*
X011320Y004467D02*
X011560Y004467D01*
X011560Y004626D02*
X011320Y004626D01*
X011320Y004784D02*
X011602Y004784D01*
X011654Y004943D02*
X011320Y004943D01*
X011320Y005101D02*
X011745Y005101D01*
X011876Y005260D02*
X011320Y005260D01*
X011320Y005418D02*
X012065Y005418D01*
X012445Y005577D02*
X011323Y005577D01*
X011264Y005735D02*
X011706Y005735D01*
X011329Y005894D02*
X010659Y005894D01*
X010953Y006052D02*
X009708Y006052D01*
X009641Y005577D02*
X008915Y005577D01*
X008827Y005600D02*
X008533Y005600D01*
X008248Y005524D01*
X007992Y005376D01*
X007784Y005168D01*
X007636Y004912D01*
X007560Y004627D01*
X007560Y004333D01*
X007636Y004048D01*
X007784Y003792D01*
X007992Y003584D01*
X008248Y003436D01*
X008533Y003360D01*
X008827Y003360D01*
X009112Y003436D01*
X009368Y003584D01*
X009576Y003792D01*
X009724Y004048D01*
X009800Y004333D01*
X009800Y004627D01*
X009724Y004912D01*
X009576Y005168D01*
X009368Y005376D01*
X009112Y005524D01*
X008827Y005600D01*
X008690Y005735D02*
X002720Y005735D01*
X002720Y005577D02*
X008445Y005577D01*
X008454Y005894D02*
X002720Y005894D01*
X002720Y006052D02*
X008440Y006052D01*
X008440Y006211D02*
X002720Y006211D01*
X003598Y006369D02*
X008440Y006369D01*
X008440Y006528D02*
X003718Y006528D01*
X003720Y006686D02*
X008440Y006686D01*
X008440Y006845D02*
X003720Y006845D01*
X004446Y007796D02*
X004914Y007796D01*
X004776Y007954D02*
X004584Y007954D01*
X004640Y008113D02*
X004720Y008113D01*
X004720Y008271D02*
X004640Y008271D01*
X004640Y008430D02*
X004720Y008430D01*
X004720Y008588D02*
X004640Y008588D01*
X004640Y008747D02*
X004720Y008747D01*
X004734Y008905D02*
X004626Y008905D01*
X004547Y009064D02*
X004813Y009064D01*
X004940Y009222D02*
X004315Y009222D01*
X005640Y008271D02*
X005720Y008271D01*
X005720Y008113D02*
X005640Y008113D01*
X005584Y007954D02*
X005776Y007954D01*
X005914Y007796D02*
X005446Y007796D01*
X006520Y007796D02*
X008440Y007796D01*
X008440Y007954D02*
X006584Y007954D01*
X006640Y008113D02*
X008440Y008113D01*
X008920Y008271D02*
X008977Y008271D01*
X008920Y008430D02*
X009130Y008430D01*
X009190Y008588D02*
X008920Y008588D01*
X008440Y007637D02*
X006520Y007637D01*
X006520Y007479D02*
X008440Y007479D01*
X008440Y007320D02*
X006520Y007320D01*
X006520Y007162D02*
X008440Y007162D01*
X008440Y007003D02*
X006442Y007003D01*
X008065Y005418D02*
X002720Y005418D01*
X002720Y005260D02*
X007876Y005260D01*
X007745Y005101D02*
X002720Y005101D01*
X002720Y004943D02*
X007654Y004943D01*
X007602Y004784D02*
X002720Y004784D01*
X002720Y004626D02*
X007560Y004626D01*
X007560Y004467D02*
X002720Y004467D01*
X002720Y004309D02*
X004947Y004309D01*
X005413Y004309D02*
X007566Y004309D01*
X007609Y004150D02*
X005921Y004150D01*
X006195Y003992D02*
X007669Y003992D01*
X007760Y003833D02*
X006374Y003833D01*
X006532Y003675D02*
X007902Y003675D01*
X008110Y003516D02*
X006637Y003516D01*
X006729Y003358D02*
X010840Y003358D01*
X010840Y003516D02*
X009250Y003516D01*
X009458Y003675D02*
X010840Y003675D01*
X010840Y003833D02*
X009600Y003833D01*
X009691Y003992D02*
X010840Y003992D01*
X010840Y004150D02*
X009751Y004150D01*
X009794Y004309D02*
X010840Y004309D01*
X010840Y004467D02*
X009800Y004467D01*
X009800Y004626D02*
X010840Y004626D01*
X010840Y004784D02*
X009758Y004784D01*
X009706Y004943D02*
X010840Y004943D01*
X010840Y005101D02*
X009615Y005101D01*
X009484Y005260D02*
X010840Y005260D01*
X010592Y005418D02*
X009295Y005418D01*
X008920Y006211D02*
X010577Y006211D01*
X010200Y006369D02*
X008920Y006369D01*
X010427Y006794D02*
X010430Y006802D01*
X010435Y006791D01*
X010427Y006794D01*
X010428Y007162D02*
X010432Y007162D01*
X011111Y007479D02*
X011256Y007479D01*
X011382Y006686D02*
X011478Y006686D01*
X011637Y006528D02*
X011223Y006528D01*
X012915Y005577D02*
X016486Y005577D01*
X020680Y003480D02*
X022480Y003480D01*
X022480Y003980D01*
X022337Y004309D02*
X020920Y004309D01*
X020920Y004150D02*
X022163Y004150D01*
X022122Y003992D02*
X020920Y003992D01*
X020920Y003833D02*
X022153Y003833D01*
X022480Y003480D02*
X024180Y003480D01*
X024661Y002882D02*
X011936Y002882D01*
X010939Y002882D02*
X006890Y002882D01*
X006910Y002724D02*
X024509Y002724D01*
X024357Y002565D02*
X006910Y002565D01*
X006910Y002407D02*
X024205Y002407D01*
X024053Y002248D02*
X008034Y002248D01*
X008038Y002244D02*
X007944Y002338D01*
X007416Y002338D01*
X007322Y002244D01*
X007322Y001716D01*
X007416Y001622D01*
X007944Y001622D01*
X008038Y001716D01*
X008038Y002244D01*
X008038Y002090D02*
X020222Y002090D01*
X020222Y002144D02*
X020222Y001616D01*
X020316Y001522D01*
X020844Y001522D01*
X020938Y001616D01*
X020938Y002144D01*
X020844Y002238D01*
X020316Y002238D01*
X020222Y002144D01*
X020222Y001931D02*
X008038Y001931D01*
X008038Y001773D02*
X020222Y001773D01*
X020224Y001614D02*
X006620Y001614D01*
X006711Y001773D02*
X007322Y001773D01*
X007322Y001931D02*
X006797Y001931D01*
X006840Y002090D02*
X007322Y002090D01*
X007326Y002248D02*
X006882Y002248D01*
X006848Y003041D02*
X010840Y003041D01*
X010840Y003199D02*
X006805Y003199D01*
X006502Y001456D02*
X023292Y001456D01*
X023444Y001614D02*
X020936Y001614D01*
X020938Y001773D02*
X023596Y001773D01*
X023748Y001931D02*
X020938Y001931D01*
X020938Y002090D02*
X023900Y002090D01*
X024261Y001773D02*
X026370Y001773D01*
X026370Y001931D02*
X024414Y001931D01*
X024566Y002090D02*
X025448Y002090D01*
X025422Y002116D02*
X025516Y002022D01*
X026044Y002022D01*
X026138Y002116D01*
X026138Y002644D01*
X026044Y002738D01*
X025516Y002738D01*
X025422Y002644D01*
X025422Y002116D01*
X025422Y002248D02*
X024718Y002248D01*
X024870Y002407D02*
X025422Y002407D01*
X025422Y002565D02*
X025022Y002565D01*
X025174Y002724D02*
X025501Y002724D01*
X025327Y002882D02*
X026370Y002882D01*
X026370Y002724D02*
X026059Y002724D01*
X026138Y002565D02*
X026370Y002565D01*
X026370Y002407D02*
X026138Y002407D01*
X026138Y002248D02*
X026370Y002248D01*
X026370Y002090D02*
X026112Y002090D01*
X026370Y001614D02*
X024109Y001614D01*
X023957Y001456D02*
X026370Y001456D01*
X026370Y001297D02*
X023805Y001297D01*
X023653Y001139D02*
X026370Y001139D01*
X026370Y000980D02*
X023501Y000980D01*
X023349Y000821D02*
X026370Y000821D01*
X026370Y000663D02*
X023196Y000663D01*
X022835Y000980D02*
X005869Y000980D01*
X006143Y001139D02*
X022987Y001139D01*
X023140Y001297D02*
X006344Y001297D01*
X004491Y000980D02*
X002069Y000980D01*
X001656Y001139D02*
X004217Y001139D01*
X004016Y001297D02*
X001244Y001297D01*
X001296Y001614D02*
X001120Y001614D01*
X001120Y001773D02*
X001192Y001773D01*
X001150Y001931D02*
X001120Y001931D01*
X001120Y002090D02*
X001152Y002090D01*
X001120Y002248D02*
X001217Y002248D01*
X001120Y002407D02*
X001357Y002407D01*
X001345Y002565D02*
X001120Y002565D01*
X001120Y002724D02*
X001213Y002724D01*
X001150Y002882D02*
X001120Y002882D01*
X001120Y003041D02*
X001150Y003041D01*
X001120Y003199D02*
X001197Y003199D01*
X001120Y003358D02*
X001308Y003358D01*
X001415Y003516D02*
X001120Y003516D01*
X001120Y003675D02*
X001236Y003675D01*
X001167Y003833D02*
X001120Y003833D01*
X001120Y003992D02*
X001150Y003992D01*
X001120Y004150D02*
X001177Y004150D01*
X001120Y004309D02*
X001259Y004309D01*
X001120Y004467D02*
X001471Y004467D01*
X001285Y004626D02*
X001120Y004626D01*
X000660Y005076D02*
X000660Y010740D01*
X001206Y010740D01*
X001231Y010680D01*
X001380Y010531D01*
X001502Y010480D01*
X001380Y010429D01*
X001231Y010280D01*
X001150Y010085D01*
X001150Y009875D01*
X001231Y009680D01*
X001380Y009531D01*
X001502Y009480D01*
X001380Y009429D01*
X001231Y009280D01*
X001150Y009085D01*
X001150Y008875D01*
X001231Y008680D01*
X001380Y008531D01*
X001502Y008480D01*
X001380Y008429D01*
X001231Y008280D01*
X001150Y008085D01*
X001150Y007875D01*
X001231Y007680D01*
X001380Y007531D01*
X001502Y007480D01*
X001380Y007429D01*
X001231Y007280D01*
X001150Y007085D01*
X001150Y006875D01*
X001231Y006680D01*
X001380Y006531D01*
X001502Y006480D01*
X001380Y006429D01*
X001231Y006280D01*
X001150Y006085D01*
X001150Y005875D01*
X001231Y005680D01*
X001380Y005531D01*
X001502Y005480D01*
X001380Y005429D01*
X001231Y005280D01*
X001206Y005220D01*
X000832Y005220D01*
X000744Y005183D01*
X000677Y005116D01*
X000660Y005076D01*
X000660Y005101D02*
X000670Y005101D01*
X000660Y005260D02*
X001222Y005260D01*
X001368Y005418D02*
X000660Y005418D01*
X000660Y005577D02*
X001334Y005577D01*
X001208Y005735D02*
X000660Y005735D01*
X000660Y005894D02*
X001150Y005894D01*
X001150Y006052D02*
X000660Y006052D01*
X000660Y006211D02*
X001202Y006211D01*
X001319Y006369D02*
X000660Y006369D01*
X000660Y006528D02*
X001387Y006528D01*
X001228Y006686D02*
X000660Y006686D01*
X000660Y006845D02*
X001162Y006845D01*
X001150Y007003D02*
X000660Y007003D01*
X000660Y007162D02*
X001182Y007162D01*
X001270Y007320D02*
X000660Y007320D01*
X000660Y007479D02*
X001499Y007479D01*
X001273Y007637D02*
X000660Y007637D01*
X000660Y007796D02*
X001183Y007796D01*
X001150Y007954D02*
X000660Y007954D01*
X000660Y008113D02*
X001161Y008113D01*
X001227Y008271D02*
X000660Y008271D01*
X000660Y008430D02*
X001380Y008430D01*
X001322Y008588D02*
X000660Y008588D01*
X000660Y008747D02*
X001203Y008747D01*
X001150Y008905D02*
X000660Y008905D01*
X000660Y009064D02*
X001150Y009064D01*
X001207Y009222D02*
X000660Y009222D01*
X000660Y009381D02*
X001331Y009381D01*
X001371Y009539D02*
X000660Y009539D01*
X000660Y009698D02*
X001223Y009698D01*
X001158Y009856D02*
X000660Y009856D01*
X000660Y010015D02*
X001150Y010015D01*
X001186Y010173D02*
X000660Y010173D01*
X000660Y010332D02*
X001282Y010332D01*
X001478Y010490D02*
X000660Y010490D01*
X000660Y010649D02*
X001262Y010649D01*
X001206Y011220D02*
X000920Y011220D01*
X000920Y014801D01*
X000944Y014777D01*
X001032Y014740D01*
X001206Y014740D01*
X001231Y014680D01*
X001380Y014531D01*
X001502Y014480D01*
X001380Y014429D01*
X001231Y014280D01*
X001150Y014085D01*
X001150Y013875D01*
X001231Y013680D01*
X001380Y013531D01*
X001502Y013480D01*
X001380Y013429D01*
X001231Y013280D01*
X001150Y013085D01*
X001150Y012875D01*
X001231Y012680D01*
X001380Y012531D01*
X001502Y012480D01*
X001380Y012429D01*
X001231Y012280D01*
X001150Y012085D01*
X001150Y011875D01*
X001231Y011680D01*
X001380Y011531D01*
X001502Y011480D01*
X001380Y011429D01*
X001231Y011280D01*
X001206Y011220D01*
X001233Y011283D02*
X000920Y011283D01*
X000920Y011441D02*
X001408Y011441D01*
X001311Y011600D02*
X000920Y011600D01*
X000920Y011758D02*
X001198Y011758D01*
X001150Y011917D02*
X000920Y011917D01*
X000920Y012075D02*
X001150Y012075D01*
X001211Y012234D02*
X000920Y012234D01*
X000920Y012392D02*
X001342Y012392D01*
X001360Y012551D02*
X000920Y012551D01*
X000920Y012709D02*
X001219Y012709D01*
X001153Y012868D02*
X000920Y012868D01*
X000920Y013026D02*
X001150Y013026D01*
X001191Y013185D02*
X000920Y013185D01*
X000920Y013343D02*
X001293Y013343D01*
X001450Y013502D02*
X000920Y013502D01*
X000920Y013660D02*
X001250Y013660D01*
X001173Y013819D02*
X000920Y013819D01*
X000920Y013977D02*
X001150Y013977D01*
X001171Y014136D02*
X000920Y014136D01*
X000920Y014294D02*
X001244Y014294D01*
X001436Y014453D02*
X000920Y014453D01*
X000920Y014611D02*
X001299Y014611D01*
X000961Y014770D02*
X000920Y014770D01*
X001080Y014980D02*
X001080Y016980D01*
X006826Y016980D01*
X006826Y016480D01*
X006180Y016480D02*
X006180Y015980D01*
X005534Y015980D01*
X005217Y016038D02*
X005143Y016038D01*
X005143Y016196D02*
X005217Y016196D01*
X005289Y016355D02*
X005071Y016355D01*
X004826Y015980D02*
X004826Y015586D01*
X004054Y015586D01*
X003737Y015562D02*
X003623Y015562D01*
X003623Y015404D02*
X003737Y015404D01*
X003546Y015245D02*
X005008Y015245D01*
X004982Y015404D02*
X005940Y015404D01*
X005940Y015562D02*
X005066Y015562D01*
X005143Y015721D02*
X005217Y015721D01*
X005217Y015879D02*
X005143Y015879D01*
X005852Y015721D02*
X005940Y015721D01*
X006180Y015980D02*
X006180Y014980D01*
X006034Y014980D01*
X005717Y014928D02*
X005643Y014928D01*
X005643Y014770D02*
X005717Y014770D01*
X005783Y014611D02*
X005577Y014611D01*
X005326Y014980D02*
X004826Y014854D01*
X004113Y014854D01*
X004549Y014611D02*
X004829Y014611D01*
X004844Y014611D02*
X005075Y014611D01*
X004549Y014294D02*
X006351Y014294D01*
X006351Y014453D02*
X004465Y014453D01*
X004549Y014136D02*
X006527Y014136D01*
X006527Y013977D02*
X004549Y013977D01*
X004524Y013819D02*
X005561Y013819D01*
X005799Y013819D02*
X006527Y013819D01*
X006527Y013660D02*
X005993Y013660D01*
X006038Y013502D02*
X006527Y013502D01*
X007007Y014136D02*
X007253Y014136D01*
X006351Y014611D02*
X006285Y014611D01*
X005717Y015087D02*
X005643Y015087D01*
X005643Y015245D02*
X005717Y015245D01*
X006420Y015721D02*
X006508Y015721D01*
X006508Y015879D02*
X006420Y015879D01*
X007143Y015879D02*
X007217Y015879D01*
X007217Y015721D02*
X007143Y015721D01*
X005844Y016355D02*
X005780Y016355D01*
X005822Y016513D02*
X003997Y016513D01*
X003997Y016355D02*
X004580Y016355D01*
X004508Y016196D02*
X003997Y016196D01*
X003920Y016038D02*
X004508Y016038D01*
X004508Y015879D02*
X004322Y015879D01*
X003737Y015721D02*
X003623Y015721D01*
X003680Y015980D02*
X003680Y016413D01*
X003363Y016355D02*
X002055Y016355D01*
X001980Y016429D02*
X001785Y016510D01*
X001575Y016510D01*
X001380Y016429D01*
X001320Y016370D01*
X001320Y016740D01*
X003446Y016740D01*
X003363Y016657D01*
X003363Y016220D01*
X002154Y016220D01*
X002129Y016280D01*
X001980Y016429D01*
X001680Y015980D02*
X003680Y015980D01*
X003306Y015586D02*
X003306Y014480D01*
X003247Y014480D01*
X002680Y014480D01*
X002347Y014611D02*
X002061Y014611D01*
X002129Y014680D02*
X002210Y014875D01*
X002210Y015085D01*
X002129Y015280D01*
X001980Y015429D01*
X001858Y015480D01*
X001980Y015531D01*
X002129Y015680D01*
X002154Y015740D01*
X002989Y015740D01*
X002989Y015343D01*
X003066Y015265D01*
X003066Y014837D01*
X002905Y014837D01*
X002861Y014793D01*
X002751Y014838D01*
X002609Y014838D01*
X002477Y014784D01*
X002376Y014683D01*
X002322Y014551D01*
X002322Y014409D01*
X002376Y014277D01*
X002434Y014220D01*
X002154Y014220D01*
X002129Y014280D01*
X001980Y014429D01*
X001858Y014480D01*
X001980Y014531D01*
X002129Y014680D01*
X002166Y014770D02*
X002463Y014770D01*
X002210Y014928D02*
X003066Y014928D01*
X003066Y015087D02*
X002210Y015087D01*
X002144Y015245D02*
X003066Y015245D01*
X002989Y015404D02*
X002006Y015404D01*
X002012Y015562D02*
X002989Y015562D01*
X002989Y015721D02*
X002146Y015721D01*
X001502Y015480D02*
X001380Y015429D01*
X001320Y015370D01*
X001320Y015590D01*
X001380Y015531D01*
X001502Y015480D01*
X001354Y015404D02*
X001320Y015404D01*
X001320Y015562D02*
X001348Y015562D01*
X001080Y014980D02*
X001680Y014980D01*
X001924Y014453D02*
X002322Y014453D01*
X002369Y014294D02*
X002116Y014294D01*
X001680Y013980D02*
X004113Y013980D01*
X004113Y014106D01*
X003761Y014453D02*
X003683Y014453D01*
X003677Y014770D02*
X003656Y014770D01*
X003677Y014928D02*
X003546Y014928D01*
X003546Y015087D02*
X003677Y015087D01*
X003494Y013660D02*
X004751Y013660D01*
X003784Y013502D02*
X003497Y013502D01*
X002946Y013740D02*
X002863Y013657D01*
X002863Y013220D01*
X002154Y013220D01*
X002129Y013280D01*
X001980Y013429D01*
X001858Y013480D01*
X001980Y013531D01*
X002129Y013680D01*
X002154Y013740D01*
X002946Y013740D01*
X002866Y013660D02*
X002110Y013660D01*
X001910Y013502D02*
X002863Y013502D01*
X002863Y013343D02*
X002067Y013343D01*
X002806Y012586D02*
X002806Y012354D01*
X003180Y011980D01*
X002896Y011758D02*
X002241Y011758D01*
X002210Y011917D02*
X002822Y011917D01*
X002746Y012075D02*
X002210Y012075D01*
X003123Y012376D02*
X003123Y012740D01*
X003228Y012740D01*
X003237Y012744D01*
X003237Y012343D01*
X003241Y012338D01*
X003161Y012338D01*
X003123Y012376D01*
X003123Y012392D02*
X003237Y012392D01*
X003237Y012551D02*
X003123Y012551D01*
X003123Y012709D02*
X003237Y012709D01*
X003554Y012586D02*
X004180Y012586D01*
X004180Y012626D01*
X003363Y016513D02*
X001320Y016513D01*
X001320Y016672D02*
X003378Y016672D01*
X003982Y016672D02*
X005872Y016672D01*
X001838Y017816D02*
X001744Y017722D01*
X001216Y017722D01*
X001122Y017816D01*
X001122Y018344D01*
X001216Y018438D01*
X001744Y018438D01*
X001838Y018344D01*
X001838Y017816D01*
X001804Y017781D02*
X026370Y017781D01*
X026370Y017623D02*
X000660Y017623D01*
X000660Y017781D02*
X001156Y017781D01*
X001122Y017940D02*
X000660Y017940D01*
X000660Y018098D02*
X001122Y018098D01*
X001122Y018257D02*
X000660Y018257D01*
X000660Y018415D02*
X001193Y018415D01*
X001767Y018415D02*
X026370Y018415D01*
X026370Y018257D02*
X001838Y018257D01*
X001838Y018098D02*
X026370Y018098D01*
X026370Y017940D02*
X001838Y017940D01*
X016007Y016989D02*
X019040Y016989D01*
X019520Y016989D02*
X026370Y016989D01*
X026370Y017147D02*
X019520Y017147D01*
X019520Y017306D02*
X026370Y017306D01*
X026370Y017464D02*
X019505Y017464D01*
X019520Y016830D02*
X021322Y016830D01*
X021322Y016844D02*
X021322Y016316D01*
X021416Y016222D01*
X021944Y016222D01*
X022038Y016316D01*
X022038Y016844D01*
X021944Y016938D01*
X021416Y016938D01*
X021322Y016844D01*
X021322Y016672D02*
X019520Y016672D01*
X019520Y016513D02*
X021322Y016513D01*
X021322Y016355D02*
X019520Y016355D01*
X019520Y016196D02*
X026370Y016196D01*
X026370Y016038D02*
X019520Y016038D01*
X022038Y016355D02*
X026370Y016355D01*
X026370Y016513D02*
X022038Y016513D01*
X022038Y016672D02*
X026370Y016672D01*
X026370Y016830D02*
X022038Y016830D01*
X024920Y007320D02*
X025398Y007320D01*
X025322Y007162D02*
X024920Y007162D01*
X024920Y007003D02*
X025322Y007003D01*
X025322Y006845D02*
X024920Y006845D01*
X024920Y006686D02*
X025351Y006686D01*
X025520Y005101D02*
X026370Y005101D01*
X026370Y004943D02*
X025520Y004943D01*
X025520Y004784D02*
X026370Y004784D01*
X026370Y004626D02*
X025520Y004626D01*
X025520Y004467D02*
X026370Y004467D01*
X026370Y004309D02*
X025520Y004309D01*
X025520Y004150D02*
X026370Y004150D01*
X026370Y003992D02*
X025520Y003992D01*
X025520Y003833D02*
X026370Y003833D01*
X026370Y003675D02*
X025520Y003675D01*
X025520Y003516D02*
X026370Y003516D01*
X026370Y003358D02*
X025520Y003358D01*
X025520Y003199D02*
X026370Y003199D01*
X026370Y003041D02*
X025480Y003041D01*
X004439Y004150D02*
X002720Y004150D01*
X002720Y003992D02*
X004165Y003992D01*
X003986Y003833D02*
X002720Y003833D01*
X002720Y003675D02*
X003828Y003675D01*
X003723Y003516D02*
X002720Y003516D01*
X002720Y003358D02*
X003631Y003358D01*
X003555Y003199D02*
X002720Y003199D01*
X002720Y003041D02*
X003512Y003041D01*
X003470Y002882D02*
X002720Y002882D01*
X002720Y002724D02*
X003450Y002724D01*
X003450Y002565D02*
X002720Y002565D01*
X002720Y002407D02*
X003450Y002407D01*
X003478Y002248D02*
X002720Y002248D01*
X002720Y002090D02*
X003520Y002090D01*
X003563Y001931D02*
X002719Y001931D01*
X002606Y001773D02*
X003649Y001773D01*
X002240Y002248D02*
X002143Y002248D01*
X002240Y002407D02*
X002003Y002407D01*
X002015Y002565D02*
X002240Y002565D01*
X002240Y002724D02*
X002147Y002724D01*
X002210Y002882D02*
X002240Y002882D01*
X002240Y003041D02*
X002210Y003041D01*
X002240Y003199D02*
X002163Y003199D01*
X002240Y003358D02*
X002052Y003358D01*
X001945Y003516D02*
X002240Y003516D01*
X002240Y003675D02*
X002124Y003675D01*
X002193Y003833D02*
X002240Y003833D01*
X002240Y003992D02*
X002210Y003992D01*
X002183Y004150D02*
X002240Y004150D01*
X002240Y004309D02*
X002101Y004309D01*
X002240Y004467D02*
X001889Y004467D01*
D21*
X007680Y001980D03*
X012780Y010880D03*
X021680Y016580D03*
X024180Y013480D03*
X025680Y009780D03*
X025680Y006980D03*
X025780Y002380D03*
X020580Y001880D03*
X001480Y018080D03*
M02*
