solid OpenSCAD_Model
  facet normal -1 0 0
    outer loop
      vertex -34.5 -35.55 -3
      vertex -34.5 -35.55 3
      vertex -34.5 35.5 -3
    endloop
  endfacet
  facet normal -1 0 0
    outer loop
      vertex -34.5 35.5 -3
      vertex -34.5 -35.55 3
      vertex -34.5 35.5 3
    endloop
  endfacet
  facet normal -1.22465e-16 -1 0
    outer loop
      vertex -34.4937 -35.55 -3
      vertex -34.4937 -35.55 3
      vertex -34.5 -35.55 3
    endloop
  endfacet
  facet normal -1.22465e-16 -1 0
    outer loop
      vertex -34.5 -35.55 -3
      vertex -34.4937 -35.55 -3
      vertex -34.5 -35.55 3
    endloop
  endfacet
  facet normal 0 0 -1
    outer loop
      vertex -34.5 -35.55 -3
      vertex -34.5 35.5 -3
      vertex -34.4937 -35.55 -3
    endloop
  endfacet
  facet normal 0 0 -1
    outer loop
      vertex -34.4937 -35.55 -3
      vertex -34.5 35.5 -3
      vertex -34.4822 35.5 -3
    endloop
  endfacet
  facet normal 0 0 -1
    outer loop
      vertex -34.4822 35.5 -3
      vertex -34.4941 35.6884 -3
      vertex -34.3532 36.4271 -3
    endloop
  endfacet
  facet normal 0 0 -1
    outer loop
      vertex -34.4822 35.5 -3
      vertex -34.3532 36.4271 -3
      vertex -34.4937 -35.55 -3
    endloop
  endfacet
  facet normal 0 0 -1
    outer loop
      vertex -34.4937 -35.55 -3
      vertex -34.3532 36.4271 -3
      vertex -34.033 37.1075 -3
    endloop
  endfacet
  facet normal 0 0 -1
    outer loop
      vertex -34.4937 -35.55 -3
      vertex -34.033 37.1075 -3
      vertex -33.5536 37.6869 -3
    endloop
  endfacet
  facet normal 0 0 -1
    outer loop
      vertex -34.4937 -35.55 -3
      vertex -33.5536 37.6869 -3
      vertex -32.9453 38.1289 -3
    endloop
  endfacet
  facet normal 0 0 -1
    outer loop
      vertex -34.4937 -35.55 -3
      vertex -32.9453 38.1289 -3
      vertex -32.2461 38.4057 -3
    endloop
  endfacet
  facet normal 0 0 -1
    outer loop
      vertex -34.4937 -35.55 -3
      vertex -32.2461 38.4057 -3
      vertex -31.55 38.4937 -3
    endloop
  endfacet
  facet normal 0 0 -1
    outer loop
      vertex -31.55 38.4937 -3
      vertex -31.55 38.5 -3
      vertex 31.5 38.5 -3
    endloop
  endfacet
  facet normal 0 0 -1
    outer loop
      vertex -28.309 -29.5878 -3
      vertex -34.4937 -35.55 -3
      vertex -28.309 -28.4122 -3
    endloop
  endfacet
  facet normal 0 0 -1
    outer loop
      vertex 18 10 -3
      vertex -28.309 -28.4122 -3
      vertex -15 10 -3
    endloop
  endfacet
  facet normal 0 0 -1
    outer loop
      vertex 18 28 -3
      vertex 31.5 38.5 -3
      vertex 31.5 38.4822 -3
    endloop
  endfacet
  facet normal 0 0 -1
    outer loop
      vertex 18 28 -3
      vertex 31.5 38.4822 -3
      vertex 31.6884 38.4941 -3
    endloop
  endfacet
  facet normal 0 0 -1
    outer loop
      vertex 18 28 -3
      vertex 31.6884 38.4941 -3
      vertex 32.4271 38.3532 -3
    endloop
  endfacet
  facet normal 0 0 -1
    outer loop
      vertex 26.691 29.5878 -3
      vertex 33.6869 37.5536 -3
      vertex 34.1289 36.9453 -3
    endloop
  endfacet
  facet normal 0 0 -1
    outer loop
      vertex 27.809 29.9511 -3
      vertex 34.4937 35.55 -3
      vertex 34.5 35.55 -3
    endloop
  endfacet
  facet normal 0 0 -1
    outer loop
      vertex 34.4822 -35.5 -3
      vertex 34.5 35.55 -3
      vertex 34.5 -35.5 -3
    endloop
  endfacet
  facet normal 0 0 -1
    outer loop
      vertex 18 10 -3
      vertex 34.5 35.55 -3
      vertex 34.4822 -35.5 -3
    endloop
  endfacet
  facet normal 0 0 -1
    outer loop
      vertex -31.6884 -38.4941 -3
      vertex -34.4937 -35.55 -3
      vertex -31.5 -38.4822 -3
    endloop
  endfacet
  facet normal 0 0 -1
    outer loop
      vertex 34.4941 -35.6884 -3
      vertex -34.4937 -35.55 -3
      vertex 34.4822 -35.5 -3
    endloop
  endfacet
  facet normal 0 0 -1
    outer loop
      vertex 31.55 -38.5 -3
      vertex -31.5 -38.5 -3
      vertex -31.5 -38.4822 -3
    endloop
  endfacet
  facet normal 0 0 -1
    outer loop
      vertex 18 28 -3
      vertex 27.809 28.0489 -3
      vertex 18 10 -3
    endloop
  endfacet
  facet normal 0 0 -1
    outer loop
      vertex -31.55 38.4937 -3
      vertex -28.309 -28.4122 -3
      vertex -34.4937 -35.55 -3
    endloop
  endfacet
  facet normal 0 0 -1
    outer loop
      vertex -26.5 29 -3
      vertex 31.5 38.5 -3
      vertex -27.191 28.0489 -3
    endloop
  endfacet
  facet normal 0 0 -1
    outer loop
      vertex -34.4937 -35.55 -3
      vertex -28.309 -29.5878 -3
      vertex -27.191 -29.9511 -3
    endloop
  endfacet
  facet normal 0 0 -1
    outer loop
      vertex -34.4937 -35.55 -3
      vertex -27.191 -29.9511 -3
      vertex 34.4822 -35.5 -3
    endloop
  endfacet
  facet normal 0 0 -1
    outer loop
      vertex 18 28 -3
      vertex 26.691 28.4122 -3
      vertex 27.809 28.0489 -3
    endloop
  endfacet
  facet normal 0 0 -1
    outer loop
      vertex -26.5 -29 -3
      vertex 34.4822 -35.5 -3
      vertex -27.191 -29.9511 -3
    endloop
  endfacet
  facet normal 0 0 -1
    outer loop
      vertex -15 28 -3
      vertex 31.5 38.5 -3
      vertex 18 28 -3
    endloop
  endfacet
  facet normal 0 0 -1
    outer loop
      vertex -31.55 38.4937 -3
      vertex -28.309 28.4122 -3
      vertex -28.309 -28.4122 -3
    endloop
  endfacet
  facet normal 0 0 -1
    outer loop
      vertex -27.191 29.9511 -3
      vertex 31.5 38.5 -3
      vertex -26.5 29 -3
    endloop
  endfacet
  facet normal 0 0 -1
    outer loop
      vertex -28.309 29.5878 -3
      vertex -28.309 28.4122 -3
      vertex -31.55 38.4937 -3
    endloop
  endfacet
  facet normal 0 0 -1
    outer loop
      vertex -28.309 28.4122 -3
      vertex -27.191 28.0489 -3
      vertex -28.309 -28.4122 -3
    endloop
  endfacet
  facet normal 0 0 -1
    outer loop
      vertex -31.55 38.4937 -3
      vertex 31.5 38.5 -3
      vertex -27.191 29.9511 -3
    endloop
  endfacet
  facet normal 0 0 -1
    outer loop
      vertex -31.55 38.4937 -3
      vertex -27.191 29.9511 -3
      vertex -28.309 29.5878 -3
    endloop
  endfacet
  facet normal 0 0 -1
    outer loop
      vertex -27.191 28.0489 -3
      vertex 31.5 38.5 -3
      vertex -15 28 -3
    endloop
  endfacet
  facet normal 0 0 -1
    outer loop
      vertex -27.191 28.0489 -3
      vertex -15 28 -3
      vertex -28.309 -28.4122 -3
    endloop
  endfacet
  facet normal 0 0 -1
    outer loop
      vertex 18 10 -3
      vertex -26.5 -29 -3
      vertex -27.191 -28.0489 -3
    endloop
  endfacet
  facet normal 0 0 -1
    outer loop
      vertex -15 28 -3
      vertex -15 10 -3
      vertex -28.309 -28.4122 -3
    endloop
  endfacet
  facet normal 0 0 -1
    outer loop
      vertex 27.809 28.0489 -3
      vertex 34.5 35.55 -3
      vertex 18 10 -3
    endloop
  endfacet
  facet normal 0 0 -1
    outer loop
      vertex 28.5 -29 -3
      vertex 18 10 -3
      vertex 34.4822 -35.5 -3
    endloop
  endfacet
  facet normal 0 0 -1
    outer loop
      vertex 18 10 -3
      vertex -27.191 -28.0489 -3
      vertex -28.309 -28.4122 -3
    endloop
  endfacet
  facet normal 0 0 -1
    outer loop
      vertex -26.5 -29 -3
      vertex 18 10 -3
      vertex 26.691 -28.4122 -3
    endloop
  endfacet
  facet normal 0 0 -1
    outer loop
      vertex 27.809 29.9511 -3
      vertex 34.4057 36.2461 -3
      vertex 34.4937 35.55 -3
    endloop
  endfacet
  facet normal 0 0 -1
    outer loop
      vertex -26.5 -29 -3
      vertex 26.691 -28.4122 -3
      vertex 26.691 -29.5878 -3
    endloop
  endfacet
  facet normal 0 0 -1
    outer loop
      vertex -26.5 -29 -3
      vertex 26.691 -29.5878 -3
      vertex 34.4822 -35.5 -3
    endloop
  endfacet
  facet normal 0 0 -1
    outer loop
      vertex 26.691 -29.5878 -3
      vertex 27.809 -29.9511 -3
      vertex 34.4822 -35.5 -3
    endloop
  endfacet
  facet normal 0 0 -1
    outer loop
      vertex 27.809 -28.0489 -3
      vertex 18 10 -3
      vertex 28.5 -29 -3
    endloop
  endfacet
  facet normal 0 0 -1
    outer loop
      vertex 27.809 29.9511 -3
      vertex 34.1289 36.9453 -3
      vertex 34.4057 36.2461 -3
    endloop
  endfacet
  facet normal 0 0 -1
    outer loop
      vertex 26.691 -28.4122 -3
      vertex 18 10 -3
      vertex 27.809 -28.0489 -3
    endloop
  endfacet
  facet normal 0 0 -1
    outer loop
      vertex 18 28 -3
      vertex 32.4271 38.3532 -3
      vertex 33.1075 38.033 -3
    endloop
  endfacet
  facet normal 0 0 -1
    outer loop
      vertex 18 28 -3
      vertex 33.1075 38.033 -3
      vertex 33.6869 37.5536 -3
    endloop
  endfacet
  facet normal 0 0 -1
    outer loop
      vertex 26.691 29.5878 -3
      vertex 34.1289 36.9453 -3
      vertex 27.809 29.9511 -3
    endloop
  endfacet
  facet normal 0 0 -1
    outer loop
      vertex 28.5 29 -3
      vertex 34.5 35.55 -3
      vertex 27.809 28.0489 -3
    endloop
  endfacet
  facet normal 0 0 -1
    outer loop
      vertex 18 28 -3
      vertex 26.691 29.5878 -3
      vertex 26.691 28.4122 -3
    endloop
  endfacet
  facet normal 0 0 -1
    outer loop
      vertex 18 28 -3
      vertex 33.6869 37.5536 -3
      vertex 26.691 29.5878 -3
    endloop
  endfacet
  facet normal 0 0 -1
    outer loop
      vertex 28.5 -29 -3
      vertex 34.4822 -35.5 -3
      vertex 27.809 -29.9511 -3
    endloop
  endfacet
  facet normal 0 0 -1
    outer loop
      vertex -34.4937 -35.55 -3
      vertex 34.4941 -35.6884 -3
      vertex 34.3532 -36.4271 -3
    endloop
  endfacet
  facet normal 0 0 -1
    outer loop
      vertex -34.4937 -35.55 -3
      vertex 34.3532 -36.4271 -3
      vertex 34.033 -37.1075 -3
    endloop
  endfacet
  facet normal 0 0 -1
    outer loop
      vertex -34.4937 -35.55 -3
      vertex 34.033 -37.1075 -3
      vertex 33.5536 -37.6869 -3
    endloop
  endfacet
  facet normal 0 0 -1
    outer loop
      vertex -34.4937 -35.55 -3
      vertex 33.5536 -37.6869 -3
      vertex 32.9453 -38.1289 -3
    endloop
  endfacet
  facet normal 0 0 -1
    outer loop
      vertex -34.4937 -35.55 -3
      vertex 32.9453 -38.1289 -3
      vertex 32.2461 -38.4057 -3
    endloop
  endfacet
  facet normal 0 0 -1
    outer loop
      vertex -34.4937 -35.55 -3
      vertex 32.2461 -38.4057 -3
      vertex 31.55 -38.4937 -3
    endloop
  endfacet
  facet normal 0 0 -1
    outer loop
      vertex -34.4937 -35.55 -3
      vertex 31.55 -38.4937 -3
      vertex 31.55 -38.5 -3
    endloop
  endfacet
  facet normal 0 0 -1
    outer loop
      vertex -34.4937 -35.55 -3
      vertex 31.55 -38.5 -3
      vertex -31.5 -38.4822 -3
    endloop
  endfacet
  facet normal 0 0 -1
    outer loop
      vertex -34.4937 -35.55 -3
      vertex -31.6884 -38.4941 -3
      vertex -32.4271 -38.3532 -3
    endloop
  endfacet
  facet normal 0 0 -1
    outer loop
      vertex -34.4937 -35.55 -3
      vertex -32.4271 -38.3532 -3
      vertex -33.1075 -38.033 -3
    endloop
  endfacet
  facet normal 0 0 -1
    outer loop
      vertex -34.4937 -35.55 -3
      vertex -33.1075 -38.033 -3
      vertex -33.6869 -37.5536 -3
    endloop
  endfacet
  facet normal 0 0 -1
    outer loop
      vertex -34.4937 -35.55 -3
      vertex -33.6869 -37.5536 -3
      vertex -34.1289 -36.9453 -3
    endloop
  endfacet
  facet normal 0 0 -1
    outer loop
      vertex -34.4937 -35.55 -3
      vertex -34.1289 -36.9453 -3
      vertex -34.4057 -36.2461 -3
    endloop
  endfacet
  facet normal 0 0 -1
    outer loop
      vertex 27.809 29.9511 -3
      vertex 34.5 35.55 -3
      vertex 28.5 29 -3
    endloop
  endfacet
  facet normal 6.12323e-17 1 0
    outer loop
      vertex -34.4822 35.5 3
      vertex -34.4822 35.5 -3
      vertex -34.5 35.5 3
    endloop
  endfacet
  facet normal 6.12323e-17 1 0
    outer loop
      vertex -34.5 35.5 3
      vertex -34.4822 35.5 -3
      vertex -34.5 35.5 -3
    endloop
  endfacet
  facet normal 0 0 1
    outer loop
      vertex -34.5 35.5 3
      vertex -34.5 -35.55 3
      vertex -34.4937 -35.55 3
    endloop
  endfacet
  facet normal 0 0 1
    outer loop
      vertex -34.4057 -36.2461 3
      vertex -34.5 35.5 3
      vertex -34.4937 -35.55 3
    endloop
  endfacet
  facet normal 0 0 1
    outer loop
      vertex -34.4057 -36.2461 3
      vertex -34.1289 -36.9453 3
      vertex -34.5 35.5 3
    endloop
  endfacet
  facet normal 0 0 1
    outer loop
      vertex -34.1289 -36.9453 3
      vertex -33.6869 -37.5536 3
      vertex -34.5 35.5 3
    endloop
  endfacet
  facet normal 0 0 1
    outer loop
      vertex -33.6869 -37.5536 3
      vertex -33.1075 -38.033 3
      vertex -34.5 35.5 3
    endloop
  endfacet
  facet normal 0 0 1
    outer loop
      vertex -33.1075 -38.033 3
      vertex -32.4271 -38.3532 3
      vertex -34.5 35.5 3
    endloop
  endfacet
  facet normal 0 0 1
    outer loop
      vertex -31.5 -38.5 3
      vertex 31.55 -38.5 3
      vertex -31.5 -38.4822 3
    endloop
  endfacet
  facet normal 0 0 1
    outer loop
      vertex -29.55 36.5 3
      vertex 34.1289 36.9453 3
      vertex 33.6869 37.5536 3
    endloop
  endfacet
  facet normal 0 0 1
    outer loop
      vertex -29.55 36.5 3
      vertex 33.1075 38.033 3
      vertex 32.4271 38.3532 3
    endloop
  endfacet
  facet normal 0 0 1
    outer loop
      vertex -32.033 35.1075 3
      vertex -34.4941 35.6884 3
      vertex -34.4822 35.5 3
    endloop
  endfacet
  facet normal 0 0 1
    outer loop
      vertex 32.4822 -33.5 3
      vertex 32.4941 -33.6884 3
      vertex 34.4941 -35.6884 3
    endloop
  endfacet
  facet normal 0 0 1
    outer loop
      vertex 31.5536 -35.6869 3
      vertex 30.9453 -36.1289 3
      vertex 32.9453 -38.1289 3
    endloop
  endfacet
  facet normal 0 0 1
    outer loop
      vertex 30.9453 -36.1289 3
      vertex 30.2461 -36.4057 3
      vertex 32.2461 -38.4057 3
    endloop
  endfacet
  facet normal 0 0 1
    outer loop
      vertex 29.55 -36.5 3
      vertex -29.5 -36.5 3
      vertex -31.5 -38.4822 3
    endloop
  endfacet
  facet normal 0 0 1
    outer loop
      vertex 32.4271 38.3532 3
      vertex 31.6884 38.4941 3
      vertex 31.5 38.4822 3
    endloop
  endfacet
  facet normal 0 0 1
    outer loop
      vertex -34.4941 35.6884 3
      vertex -34.033 37.1075 3
      vertex -34.3532 36.4271 3
    endloop
  endfacet
  facet normal 0 0 1
    outer loop
      vertex 31.5 38.5 3
      vertex -31.55 38.5 3
      vertex -31.55 38.4937 3
    endloop
  endfacet
  facet normal 0 0 1
    outer loop
      vertex -31.1075 -36.033 3
      vertex -31.6869 -35.5536 3
      vertex -31.5 -38.4822 3
    endloop
  endfacet
  facet normal 0 0 1
    outer loop
      vertex -32.4822 33.5 3
      vertex -32.4941 33.6884 3
      vertex -32.5 33.5 3
    endloop
  endfacet
  facet normal 0 0 1
    outer loop
      vertex -29.55 36.5 3
      vertex 31.5 38.4822 3
      vertex 31.5 38.5 3
    endloop
  endfacet
  facet normal 0 0 1
    outer loop
      vertex -32.4271 -38.3532 3
      vertex -32.5 -33.55 3
      vertex -34.5 35.5 3
    endloop
  endfacet
  facet normal 0 0 1
    outer loop
      vertex 32.5 33.55 3
      vertex 34.4822 -35.5 3
      vertex 34.5 -35.5 3
    endloop
  endfacet
  facet normal 0 0 1
    outer loop
      vertex 30.2461 -36.4057 3
      vertex 29.55 -36.4937 3
      vertex 31.55 -38.5 3
    endloop
  endfacet
  facet normal 0 0 1
    outer loop
      vertex -32.5 33.5 3
      vertex -32.4941 33.6884 3
      vertex -34.4822 35.5 3
    endloop
  endfacet
  facet normal 0 0 1
    outer loop
      vertex -32.4941 33.6884 3
      vertex -32.3532 34.4271 3
      vertex -34.4822 35.5 3
    endloop
  endfacet
  facet normal 0 0 1
    outer loop
      vertex -32.3532 34.4271 3
      vertex -32.033 35.1075 3
      vertex -34.4822 35.5 3
    endloop
  endfacet
  facet normal 0 0 1
    outer loop
      vertex -30.9453 36.1289 3
      vertex -31.55 38.4937 3
      vertex -31.5536 35.6869 3
    endloop
  endfacet
  facet normal 0 0 1
    outer loop
      vertex 32.5 33.55 3
      vertex 32.5 -33.5 3
      vertex 34.4822 -35.5 3
    endloop
  endfacet
  facet normal 0 0 1
    outer loop
      vertex -30.2461 36.4057 3
      vertex -31.55 38.4937 3
      vertex -30.9453 36.1289 3
    endloop
  endfacet
  facet normal 0 0 1
    outer loop
      vertex -29.55 36.4937 3
      vertex -31.55 38.4937 3
      vertex -30.2461 36.4057 3
    endloop
  endfacet
  facet normal 0 0 1
    outer loop
      vertex -29.55 36.5 3
      vertex -31.55 38.4937 3
      vertex -29.55 36.4937 3
    endloop
  endfacet
  facet normal 0 0 1
    outer loop
      vertex 31.5 38.5 3
      vertex -31.55 38.4937 3
      vertex -29.55 36.5 3
    endloop
  endfacet
  facet normal 0 0 1
    outer loop
      vertex 32.033 -35.1075 3
      vertex 31.5536 -35.6869 3
      vertex 33.5536 -37.6869 3
    endloop
  endfacet
  facet normal 0 0 1
    outer loop
      vertex 29.6884 36.4941 3
      vertex 34.1289 36.9453 3
      vertex 29.5 36.5 3
    endloop
  endfacet
  facet normal 0 0 1
    outer loop
      vertex 29.6884 36.4941 3
      vertex 30.4271 36.3532 3
      vertex 34.4057 36.2461 3
    endloop
  endfacet
  facet normal 0 0 1
    outer loop
      vertex 34.4057 36.2461 3
      vertex 34.1289 36.9453 3
      vertex 29.6884 36.4941 3
    endloop
  endfacet
  facet normal 0 0 1
    outer loop
      vertex 32.3532 -34.4271 3
      vertex 32.033 -35.1075 3
      vertex 34.033 -37.1075 3
    endloop
  endfacet
  facet normal 0 0 1
    outer loop
      vertex 32.4941 -33.6884 3
      vertex 32.3532 -34.4271 3
      vertex 34.3532 -36.4271 3
    endloop
  endfacet
  facet normal 0 0 1
    outer loop
      vertex 34.4937 35.55 3
      vertex 34.4057 36.2461 3
      vertex 31.1075 36.033 3
    endloop
  endfacet
  facet normal 0 0 1
    outer loop
      vertex 34.4937 35.55 3
      vertex 31.1075 36.033 3
      vertex 31.6869 35.5536 3
    endloop
  endfacet
  facet normal 0 0 1
    outer loop
      vertex 32.4057 34.2461 3
      vertex 34.5 35.55 3
      vertex 32.1289 34.9453 3
    endloop
  endfacet
  facet normal 0 0 1
    outer loop
      vertex 32.4937 33.55 3
      vertex 34.5 35.55 3
      vertex 32.4057 34.2461 3
    endloop
  endfacet
  facet normal 0 0 1
    outer loop
      vertex 32.5 33.55 3
      vertex 34.5 35.55 3
      vertex 32.4937 33.55 3
    endloop
  endfacet
  facet normal 0 0 1
    outer loop
      vertex 34.5 -35.5 3
      vertex 34.5 35.55 3
      vertex 32.5 33.55 3
    endloop
  endfacet
  facet normal 0 0 1
    outer loop
      vertex -32.033 35.1075 3
      vertex -31.5536 35.6869 3
      vertex -34.4941 35.6884 3
    endloop
  endfacet
  facet normal 0 0 1
    outer loop
      vertex 34.4941 -35.6884 3
      vertex 34.4822 -35.5 3
      vertex 32.5 -33.5 3
    endloop
  endfacet
  facet normal 0 0 1
    outer loop
      vertex -29.55 36.5 3
      vertex 32.4271 38.3532 3
      vertex 31.5 38.4822 3
    endloop
  endfacet
  facet normal 0 0 1
    outer loop
      vertex 34.4941 -35.6884 3
      vertex 32.5 -33.5 3
      vertex 32.4822 -33.5 3
    endloop
  endfacet
  facet normal 0 0 1
    outer loop
      vertex -29.55 36.5 3
      vertex 33.6869 37.5536 3
      vertex 33.1075 38.033 3
    endloop
  endfacet
  facet normal 0 0 1
    outer loop
      vertex 34.3532 -36.4271 3
      vertex 34.4941 -35.6884 3
      vertex 32.4941 -33.6884 3
    endloop
  endfacet
  facet normal 0 0 1
    outer loop
      vertex -29.55 36.5 3
      vertex 29.5 36.5 3
      vertex 34.1289 36.9453 3
    endloop
  endfacet
  facet normal 0 0 1
    outer loop
      vertex 34.033 -37.1075 3
      vertex 34.3532 -36.4271 3
      vertex 32.3532 -34.4271 3
    endloop
  endfacet
  facet normal 0 0 1
    outer loop
      vertex 33.5536 -37.6869 3
      vertex 34.033 -37.1075 3
      vertex 32.033 -35.1075 3
    endloop
  endfacet
  facet normal 0 0 1
    outer loop
      vertex 32.9453 -38.1289 3
      vertex 33.5536 -37.6869 3
      vertex 31.5536 -35.6869 3
    endloop
  endfacet
  facet normal 0 0 1
    outer loop
      vertex 32.2461 -38.4057 3
      vertex 32.9453 -38.1289 3
      vertex 30.9453 -36.1289 3
    endloop
  endfacet
  facet normal 0 0 1
    outer loop
      vertex 31.55 -38.4937 3
      vertex 32.2461 -38.4057 3
      vertex 30.2461 -36.4057 3
    endloop
  endfacet
  facet normal 0 0 1
    outer loop
      vertex 29.55 -36.5 3
      vertex 31.55 -38.5 3
      vertex 29.55 -36.4937 3
    endloop
  endfacet
  facet normal 0 0 1
    outer loop
      vertex -29.5 -36.4822 3
      vertex -29.6884 -36.4941 3
      vertex -29.5 -36.5 3
    endloop
  endfacet
  facet normal 0 0 1
    outer loop
      vertex -31.5 -38.4822 3
      vertex 31.55 -38.5 3
      vertex 29.55 -36.5 3
    endloop
  endfacet
  facet normal 0 0 1
    outer loop
      vertex -31.5 -38.4822 3
      vertex -29.5 -36.5 3
      vertex -29.6884 -36.4941 3
    endloop
  endfacet
  facet normal 0 0 1
    outer loop
      vertex -31.5 -38.4822 3
      vertex -29.6884 -36.4941 3
      vertex -30.4271 -36.3532 3
    endloop
  endfacet
  facet normal 0 0 1
    outer loop
      vertex -31.5 -38.4822 3
      vertex -30.4271 -36.3532 3
      vertex -31.1075 -36.033 3
    endloop
  endfacet
  facet normal 0 0 1
    outer loop
      vertex -31.6884 -38.4941 3
      vertex -31.5 -38.4822 3
      vertex -31.6869 -35.5536 3
    endloop
  endfacet
  facet normal 0 0 1
    outer loop
      vertex -32.4057 -34.2461 3
      vertex -32.4937 -33.55 3
      vertex -32.5 -33.55 3
    endloop
  endfacet
  facet normal 0 0 1
    outer loop
      vertex -32.4271 -38.3532 3
      vertex -32.4057 -34.2461 3
      vertex -32.5 -33.55 3
    endloop
  endfacet
  facet normal 0 0 1
    outer loop
      vertex -32.4271 -38.3532 3
      vertex -31.6884 -38.4941 3
      vertex -32.4057 -34.2461 3
    endloop
  endfacet
  facet normal 0 0 1
    outer loop
      vertex 30.2461 -36.4057 3
      vertex 31.55 -38.5 3
      vertex 31.55 -38.4937 3
    endloop
  endfacet
  facet normal 0 0 1
    outer loop
      vertex -34.4941 35.6884 3
      vertex -33.5536 37.6869 3
      vertex -34.033 37.1075 3
    endloop
  endfacet
  facet normal 0 0 1
    outer loop
      vertex -34.4941 35.6884 3
      vertex -32.9453 38.1289 3
      vertex -33.5536 37.6869 3
    endloop
  endfacet
  facet normal 0 0 1
    outer loop
      vertex -34.4941 35.6884 3
      vertex -32.2461 38.4057 3
      vertex -32.9453 38.1289 3
    endloop
  endfacet
  facet normal 0 0 1
    outer loop
      vertex -34.4941 35.6884 3
      vertex -31.55 38.4937 3
      vertex -32.2461 38.4057 3
    endloop
  endfacet
  facet normal 0 0 1
    outer loop
      vertex -34.4941 35.6884 3
      vertex -31.5536 35.6869 3
      vertex -31.55 38.4937 3
    endloop
  endfacet
  facet normal 0 0 1
    outer loop
      vertex 31.6869 35.5536 3
      vertex 32.1289 34.9453 3
      vertex 34.4937 35.55 3
    endloop
  endfacet
  facet normal 0 0 1
    outer loop
      vertex 34.4937 35.55 3
      vertex 32.1289 34.9453 3
      vertex 34.5 35.55 3
    endloop
  endfacet
  facet normal 0 0 1
    outer loop
      vertex 29.5 36.4822 3
      vertex 29.6884 36.4941 3
      vertex 29.5 36.5 3
    endloop
  endfacet
  facet normal 0 0 1
    outer loop
      vertex 30.4271 36.3532 3
      vertex 31.1075 36.033 3
      vertex 34.4057 36.2461 3
    endloop
  endfacet
  facet normal 0 0 1
    outer loop
      vertex -31.6869 -35.5536 3
      vertex -32.1289 -34.9453 3
      vertex -31.6884 -38.4941 3
    endloop
  endfacet
  facet normal 0 0 1
    outer loop
      vertex -32.1289 -34.9453 3
      vertex -32.4057 -34.2461 3
      vertex -31.6884 -38.4941 3
    endloop
  endfacet
  facet normal 0 0 1
    outer loop
      vertex -32.5 -33.55 3
      vertex -34.4822 35.5 3
      vertex -34.5 35.5 3
    endloop
  endfacet
  facet normal 0 0 1
    outer loop
      vertex -32.5 -33.55 3
      vertex -32.5 33.5 3
      vertex -34.4822 35.5 3
    endloop
  endfacet
  facet normal -0.992115 -0.125334 0
    outer loop
      vertex -34.4937 -35.55 -3
      vertex -34.4057 -36.2461 -3
      vertex -34.4937 -35.55 3
    endloop
  endfacet
  facet normal -0.992115 -0.125334 0
    outer loop
      vertex -34.4937 -35.55 3
      vertex -34.4057 -36.2461 -3
      vertex -34.4057 -36.2461 3
    endloop
  endfacet
  facet normal -0.929777 -0.368124 0
    outer loop
      vertex -34.4057 -36.2461 -3
      vertex -34.1289 -36.9453 -3
      vertex -34.4057 -36.2461 3
    endloop
  endfacet
  facet normal -0.929777 -0.368124 0
    outer loop
      vertex -34.4057 -36.2461 3
      vertex -34.1289 -36.9453 -3
      vertex -34.1289 -36.9453 3
    endloop
  endfacet
  facet normal -0.809017 -0.587785 0
    outer loop
      vertex -34.1289 -36.9453 -3
      vertex -33.6869 -37.5536 -3
      vertex -34.1289 -36.9453 3
    endloop
  endfacet
  facet normal -0.809017 -0.587785 0
    outer loop
      vertex -34.1289 -36.9453 3
      vertex -33.6869 -37.5536 -3
      vertex -33.6869 -37.5536 3
    endloop
  endfacet
  facet normal -0.637424 -0.770513 0
    outer loop
      vertex -33.6869 -37.5536 3
      vertex -33.6869 -37.5536 -3
      vertex -33.1075 -38.033 -3
    endloop
  endfacet
  facet normal -0.637424 -0.770513 0
    outer loop
      vertex -33.1075 -38.033 3
      vertex -33.6869 -37.5536 3
      vertex -33.1075 -38.033 -3
    endloop
  endfacet
  facet normal -0.42578 -0.904827 0
    outer loop
      vertex -33.1075 -38.033 3
      vertex -33.1075 -38.033 -3
      vertex -32.4271 -38.3532 -3
    endloop
  endfacet
  facet normal -0.42578 -0.904827 0
    outer loop
      vertex -32.4271 -38.3532 3
      vertex -33.1075 -38.033 3
      vertex -32.4271 -38.3532 -3
    endloop
  endfacet
  facet normal -0.187381 -0.982287 0
    outer loop
      vertex -32.4271 -38.3532 3
      vertex -32.4271 -38.3532 -3
      vertex -31.6884 -38.4941 -3
    endloop
  endfacet
  facet normal -0.187381 -0.982287 0
    outer loop
      vertex -31.6884 -38.4941 3
      vertex -32.4271 -38.3532 3
      vertex -31.6884 -38.4941 -3
    endloop
  endfacet
  facet normal 0.0627899 -0.998027 0
    outer loop
      vertex -31.6884 -38.4941 3
      vertex -31.6884 -38.4941 -3
      vertex -31.5 -38.4822 -3
    endloop
  endfacet
  facet normal 0.0627899 -0.998027 0
    outer loop
      vertex -31.5 -38.4822 3
      vertex -31.6884 -38.4941 3
      vertex -31.5 -38.4822 -3
    endloop
  endfacet
  facet normal -1 1.22465e-16 0
    outer loop
      vertex -31.5 -38.4822 3
      vertex -31.5 -38.4822 -3
      vertex -31.5 -38.5 3
    endloop
  endfacet
  facet normal -1 1.22465e-16 0
    outer loop
      vertex -31.5 -38.5 3
      vertex -31.5 -38.4822 -3
      vertex -31.5 -38.5 -3
    endloop
  endfacet
  facet normal 0 -1 0
    outer loop
      vertex -31.5 -38.5 3
      vertex -31.5 -38.5 -3
      vertex 31.55 -38.5 -3
    endloop
  endfacet
  facet normal 0 -1 0
    outer loop
      vertex 31.55 -38.5 3
      vertex -31.5 -38.5 3
      vertex 31.55 -38.5 -3
    endloop
  endfacet
  facet normal 1 -1.83697e-16 0
    outer loop
      vertex 31.55 -38.4937 -3
      vertex 31.55 -38.4937 3
      vertex 31.55 -38.5 3
    endloop
  endfacet
  facet normal 1 -1.83697e-16 0
    outer loop
      vertex 31.55 -38.5 -3
      vertex 31.55 -38.4937 -3
      vertex 31.55 -38.5 3
    endloop
  endfacet
  facet normal 0.125334 -0.992115 0
    outer loop
      vertex 31.55 -38.4937 3
      vertex 31.55 -38.4937 -3
      vertex 32.2461 -38.4057 -3
    endloop
  endfacet
  facet normal 0.125334 -0.992115 0
    outer loop
      vertex 32.2461 -38.4057 3
      vertex 31.55 -38.4937 3
      vertex 32.2461 -38.4057 -3
    endloop
  endfacet
  facet normal 0.368124 -0.929777 0
    outer loop
      vertex 32.2461 -38.4057 3
      vertex 32.2461 -38.4057 -3
      vertex 32.9453 -38.1289 -3
    endloop
  endfacet
  facet normal 0.368124 -0.929777 0
    outer loop
      vertex 32.9453 -38.1289 3
      vertex 32.2461 -38.4057 3
      vertex 32.9453 -38.1289 -3
    endloop
  endfacet
  facet normal 0.587785 -0.809017 0
    outer loop
      vertex 32.9453 -38.1289 3
      vertex 32.9453 -38.1289 -3
      vertex 33.5536 -37.6869 -3
    endloop
  endfacet
  facet normal 0.587785 -0.809017 0
    outer loop
      vertex 33.5536 -37.6869 3
      vertex 32.9453 -38.1289 3
      vertex 33.5536 -37.6869 -3
    endloop
  endfacet
  facet normal 0.770513 -0.637424 0
    outer loop
      vertex 33.5536 -37.6869 3
      vertex 33.5536 -37.6869 -3
      vertex 34.033 -37.1075 -3
    endloop
  endfacet
  facet normal 0.770513 -0.637424 0
    outer loop
      vertex 34.033 -37.1075 3
      vertex 33.5536 -37.6869 3
      vertex 34.033 -37.1075 -3
    endloop
  endfacet
  facet normal 0.904827 -0.42578 0
    outer loop
      vertex 34.033 -37.1075 3
      vertex 34.033 -37.1075 -3
      vertex 34.3532 -36.4271 -3
    endloop
  endfacet
  facet normal 0.904827 -0.42578 0
    outer loop
      vertex 34.3532 -36.4271 3
      vertex 34.033 -37.1075 3
      vertex 34.3532 -36.4271 -3
    endloop
  endfacet
  facet normal 0.982287 -0.187381 0
    outer loop
      vertex 34.3532 -36.4271 3
      vertex 34.3532 -36.4271 -3
      vertex 34.4941 -35.6884 -3
    endloop
  endfacet
  facet normal 0.982287 -0.187381 0
    outer loop
      vertex 34.4941 -35.6884 3
      vertex 34.3532 -36.4271 3
      vertex 34.4941 -35.6884 -3
    endloop
  endfacet
  facet normal 0.998027 0.0627899 0
    outer loop
      vertex 34.4941 -35.6884 -3
      vertex 34.4822 -35.5 -3
      vertex 34.4822 -35.5 3
    endloop
  endfacet
  facet normal 0.998027 0.0627899 0
    outer loop
      vertex 34.4941 -35.6884 3
      vertex 34.4941 -35.6884 -3
      vertex 34.4822 -35.5 3
    endloop
  endfacet
  facet normal -1.83697e-16 -1 0
    outer loop
      vertex 34.5 -35.5 -3
      vertex 34.5 -35.5 3
      vertex 34.4822 -35.5 3
    endloop
  endfacet
  facet normal -1.83697e-16 -1 0
    outer loop
      vertex 34.4822 -35.5 -3
      vertex 34.5 -35.5 -3
      vertex 34.4822 -35.5 3
    endloop
  endfacet
  facet normal 1 0 0
    outer loop
      vertex 34.5 -35.5 3
      vertex 34.5 -35.5 -3
      vertex 34.5 35.55 -3
    endloop
  endfacet
  facet normal 1 0 0
    outer loop
      vertex 34.5 35.55 3
      vertex 34.5 -35.5 3
      vertex 34.5 35.55 -3
    endloop
  endfacet
  facet normal 0 1 0
    outer loop
      vertex 34.5 35.55 3
      vertex 34.5 35.55 -3
      vertex 34.4937 35.55 3
    endloop
  endfacet
  facet normal 0 1 0
    outer loop
      vertex 34.4937 35.55 3
      vertex 34.5 35.55 -3
      vertex 34.4937 35.55 -3
    endloop
  endfacet
  facet normal 0.992115 0.125334 0
    outer loop
      vertex 34.4937 35.55 -3
      vertex 34.4057 36.2461 -3
      vertex 34.4057 36.2461 3
    endloop
  endfacet
  facet normal 0.992115 0.125334 0
    outer loop
      vertex 34.4937 35.55 3
      vertex 34.4937 35.55 -3
      vertex 34.4057 36.2461 3
    endloop
  endfacet
  facet normal 0.929777 0.368124 0
    outer loop
      vertex 34.4057 36.2461 -3
      vertex 34.1289 36.9453 -3
      vertex 34.1289 36.9453 3
    endloop
  endfacet
  facet normal 0.929777 0.368124 0
    outer loop
      vertex 34.4057 36.2461 3
      vertex 34.4057 36.2461 -3
      vertex 34.1289 36.9453 3
    endloop
  endfacet
  facet normal 0.809017 0.587785 0
    outer loop
      vertex 34.1289 36.9453 -3
      vertex 33.6869 37.5536 -3
      vertex 33.6869 37.5536 3
    endloop
  endfacet
  facet normal 0.809017 0.587785 0
    outer loop
      vertex 34.1289 36.9453 3
      vertex 34.1289 36.9453 -3
      vertex 33.6869 37.5536 3
    endloop
  endfacet
  facet normal 0.637424 0.770513 0
    outer loop
      vertex 33.1075 38.033 -3
      vertex 33.1075 38.033 3
      vertex 33.6869 37.5536 -3
    endloop
  endfacet
  facet normal 0.637424 0.770513 0
    outer loop
      vertex 33.6869 37.5536 -3
      vertex 33.1075 38.033 3
      vertex 33.6869 37.5536 3
    endloop
  endfacet
  facet normal 0.42578 0.904827 0
    outer loop
      vertex 32.4271 38.3532 -3
      vertex 32.4271 38.3532 3
      vertex 33.1075 38.033 -3
    endloop
  endfacet
  facet normal 0.42578 0.904827 0
    outer loop
      vertex 33.1075 38.033 -3
      vertex 32.4271 38.3532 3
      vertex 33.1075 38.033 3
    endloop
  endfacet
  facet normal 0.187381 0.982287 0
    outer loop
      vertex 31.6884 38.4941 -3
      vertex 31.6884 38.4941 3
      vertex 32.4271 38.3532 -3
    endloop
  endfacet
  facet normal 0.187381 0.982287 0
    outer loop
      vertex 32.4271 38.3532 -3
      vertex 31.6884 38.4941 3
      vertex 32.4271 38.3532 3
    endloop
  endfacet
  facet normal -0.0627899 0.998027 0
    outer loop
      vertex 31.5 38.4822 -3
      vertex 31.5 38.4822 3
      vertex 31.6884 38.4941 -3
    endloop
  endfacet
  facet normal -0.0627899 0.998027 0
    outer loop
      vertex 31.6884 38.4941 -3
      vertex 31.5 38.4822 3
      vertex 31.6884 38.4941 3
    endloop
  endfacet
  facet normal 1 0 0
    outer loop
      vertex 31.5 38.5 -3
      vertex 31.5 38.5 3
      vertex 31.5 38.4822 3
    endloop
  endfacet
  facet normal 1 0 0
    outer loop
      vertex 31.5 38.4822 -3
      vertex 31.5 38.5 -3
      vertex 31.5 38.4822 3
    endloop
  endfacet
  facet normal 0 1 0
    outer loop
      vertex -31.55 38.5 -3
      vertex -31.55 38.5 3
      vertex 31.5 38.5 -3
    endloop
  endfacet
  facet normal 0 1 0
    outer loop
      vertex 31.5 38.5 -3
      vertex -31.55 38.5 3
      vertex 31.5 38.5 3
    endloop
  endfacet
  facet normal -1 6.12323e-17 0
    outer loop
      vertex -31.55 38.5 3
      vertex -31.55 38.5 -3
      vertex -31.55 38.4937 3
    endloop
  endfacet
  facet normal -1 6.12323e-17 0
    outer loop
      vertex -31.55 38.4937 3
      vertex -31.55 38.5 -3
      vertex -31.55 38.4937 -3
    endloop
  endfacet
  facet normal -0.125334 0.992115 0
    outer loop
      vertex -32.2461 38.4057 -3
      vertex -32.2461 38.4057 3
      vertex -31.55 38.4937 -3
    endloop
  endfacet
  facet normal -0.125334 0.992115 0
    outer loop
      vertex -31.55 38.4937 -3
      vertex -32.2461 38.4057 3
      vertex -31.55 38.4937 3
    endloop
  endfacet
  facet normal -0.368124 0.929777 0
    outer loop
      vertex -32.9453 38.1289 -3
      vertex -32.9453 38.1289 3
      vertex -32.2461 38.4057 -3
    endloop
  endfacet
  facet normal -0.368124 0.929777 0
    outer loop
      vertex -32.2461 38.4057 -3
      vertex -32.9453 38.1289 3
      vertex -32.2461 38.4057 3
    endloop
  endfacet
  facet normal -0.587785 0.809017 0
    outer loop
      vertex -33.5536 37.6869 -3
      vertex -33.5536 37.6869 3
      vertex -32.9453 38.1289 -3
    endloop
  endfacet
  facet normal -0.587785 0.809017 0
    outer loop
      vertex -32.9453 38.1289 -3
      vertex -33.5536 37.6869 3
      vertex -32.9453 38.1289 3
    endloop
  endfacet
  facet normal -0.770513 0.637424 0
    outer loop
      vertex -34.033 37.1075 -3
      vertex -34.033 37.1075 3
      vertex -33.5536 37.6869 -3
    endloop
  endfacet
  facet normal -0.770513 0.637424 0
    outer loop
      vertex -33.5536 37.6869 -3
      vertex -34.033 37.1075 3
      vertex -33.5536 37.6869 3
    endloop
  endfacet
  facet normal -0.904827 0.42578 0
    outer loop
      vertex -34.3532 36.4271 -3
      vertex -34.3532 36.4271 3
      vertex -34.033 37.1075 -3
    endloop
  endfacet
  facet normal -0.904827 0.42578 0
    outer loop
      vertex -34.033 37.1075 -3
      vertex -34.3532 36.4271 3
      vertex -34.033 37.1075 3
    endloop
  endfacet
  facet normal -0.982287 0.187381 0
    outer loop
      vertex -34.4941 35.6884 -3
      vertex -34.4941 35.6884 3
      vertex -34.3532 36.4271 -3
    endloop
  endfacet
  facet normal -0.982287 0.187381 0
    outer loop
      vertex -34.3532 36.4271 -3
      vertex -34.4941 35.6884 3
      vertex -34.3532 36.4271 3
    endloop
  endfacet
  facet normal -0.998027 -0.0627899 0
    outer loop
      vertex -34.4941 35.6884 -3
      vertex -34.4822 35.5 -3
      vertex -34.4941 35.6884 3
    endloop
  endfacet
  facet normal -0.998027 -0.0627899 0
    outer loop
      vertex -34.4941 35.6884 3
      vertex -34.4822 35.5 -3
      vertex -34.4822 35.5 3
    endloop
  endfacet
  facet normal 1 0 0
    outer loop
      vertex -28.309 -28.4122 -3
      vertex -28.309 -28.4122 0
      vertex -28.309 -29.5878 0
    endloop
  endfacet
  facet normal 1 0 0
    outer loop
      vertex -28.309 -29.5878 -3
      vertex -28.309 -28.4122 -3
      vertex -28.309 -29.5878 0
    endloop
  endfacet
  facet normal 0.309018 -0.951056 0
    outer loop
      vertex -27.191 -28.0489 -3
      vertex -27.191 -28.0489 0
      vertex -28.309 -28.4122 0
    endloop
  endfacet
  facet normal 0.309018 -0.951056 0
    outer loop
      vertex -28.309 -28.4122 -3
      vertex -27.191 -28.0489 -3
      vertex -28.309 -28.4122 0
    endloop
  endfacet
  facet normal -0.809017 -0.587785 0
    outer loop
      vertex -26.5 -29 0
      vertex -27.191 -28.0489 0
      vertex -26.5 -29 -3
    endloop
  endfacet
  facet normal -0.809017 -0.587785 0
    outer loop
      vertex -26.5 -29 -3
      vertex -27.191 -28.0489 0
      vertex -27.191 -28.0489 -3
    endloop
  endfacet
  facet normal -0.809017 0.587785 0
    outer loop
      vertex -26.5 -29 0
      vertex -26.5 -29 -3
      vertex -27.191 -29.9511 0
    endloop
  endfacet
  facet normal -0.809017 0.587785 0
    outer loop
      vertex -27.191 -29.9511 0
      vertex -26.5 -29 -3
      vertex -27.191 -29.9511 -3
    endloop
  endfacet
  facet normal 0.309018 0.951056 0
    outer loop
      vertex -27.191 -29.9511 0
      vertex -27.191 -29.9511 -3
      vertex -28.309 -29.5878 0
    endloop
  endfacet
  facet normal 0.309018 0.951056 0
    outer loop
      vertex -28.309 -29.5878 0
      vertex -27.191 -29.9511 -3
      vertex -28.309 -29.5878 -3
    endloop
  endfacet
  facet normal 1 0 0
    outer loop
      vertex -28.309 29.5878 -3
      vertex -28.309 29.5878 0
      vertex -28.309 28.4122 0
    endloop
  endfacet
  facet normal 1 0 0
    outer loop
      vertex -28.309 28.4122 -3
      vertex -28.309 29.5878 -3
      vertex -28.309 28.4122 0
    endloop
  endfacet
  facet normal 0.309018 -0.951056 0
    outer loop
      vertex -27.191 29.9511 -3
      vertex -27.191 29.9511 0
      vertex -28.309 29.5878 0
    endloop
  endfacet
  facet normal 0.309018 -0.951056 0
    outer loop
      vertex -28.309 29.5878 -3
      vertex -27.191 29.9511 -3
      vertex -28.309 29.5878 0
    endloop
  endfacet
  facet normal -0.809017 -0.587785 0
    outer loop
      vertex -26.5 29 0
      vertex -27.191 29.9511 0
      vertex -26.5 29 -3
    endloop
  endfacet
  facet normal -0.809017 -0.587785 0
    outer loop
      vertex -26.5 29 -3
      vertex -27.191 29.9511 0
      vertex -27.191 29.9511 -3
    endloop
  endfacet
  facet normal -0.809017 0.587785 0
    outer loop
      vertex -26.5 29 0
      vertex -26.5 29 -3
      vertex -27.191 28.0489 0
    endloop
  endfacet
  facet normal -0.809017 0.587785 0
    outer loop
      vertex -27.191 28.0489 0
      vertex -26.5 29 -3
      vertex -27.191 28.0489 -3
    endloop
  endfacet
  facet normal 0.309018 0.951056 0
    outer loop
      vertex -27.191 28.0489 0
      vertex -27.191 28.0489 -3
      vertex -28.309 28.4122 0
    endloop
  endfacet
  facet normal 0.309018 0.951056 0
    outer loop
      vertex -28.309 28.4122 0
      vertex -27.191 28.0489 -3
      vertex -28.309 28.4122 -3
    endloop
  endfacet
  facet normal 1 0 0
    outer loop
      vertex -15 28 -3
      vertex -15 28 0
      vertex -15 10 0
    endloop
  endfacet
  facet normal 1 0 0
    outer loop
      vertex -15 10 -3
      vertex -15 28 -3
      vertex -15 10 0
    endloop
  endfacet
  facet normal 0 -1 0
    outer loop
      vertex 18 28 -3
      vertex 18 28 0
      vertex -15 28 0
    endloop
  endfacet
  facet normal 0 -1 0
    outer loop
      vertex -15 28 -3
      vertex 18 28 -3
      vertex -15 28 0
    endloop
  endfacet
  facet normal -1 0 0
    outer loop
      vertex 18 28 0
      vertex 18 28 -3
      vertex 18 10 0
    endloop
  endfacet
  facet normal -1 0 0
    outer loop
      vertex 18 10 0
      vertex 18 28 -3
      vertex 18 10 -3
    endloop
  endfacet
  facet normal 0 1 0
    outer loop
      vertex 18 10 0
      vertex 18 10 -3
      vertex -15 10 0
    endloop
  endfacet
  facet normal 0 1 0
    outer loop
      vertex -15 10 0
      vertex 18 10 -3
      vertex -15 10 -3
    endloop
  endfacet
  facet normal 1 0 0
    outer loop
      vertex 26.691 -28.4122 -3
      vertex 26.691 -28.4122 0
      vertex 26.691 -29.5878 0
    endloop
  endfacet
  facet normal 1 0 0
    outer loop
      vertex 26.691 -29.5878 -3
      vertex 26.691 -28.4122 -3
      vertex 26.691 -29.5878 0
    endloop
  endfacet
  facet normal 0.309018 -0.951056 0
    outer loop
      vertex 27.809 -28.0489 -3
      vertex 27.809 -28.0489 0
      vertex 26.691 -28.4122 0
    endloop
  endfacet
  facet normal 0.309018 -0.951056 0
    outer loop
      vertex 26.691 -28.4122 -3
      vertex 27.809 -28.0489 -3
      vertex 26.691 -28.4122 0
    endloop
  endfacet
  facet normal -0.809017 -0.587785 0
    outer loop
      vertex 28.5 -29 0
      vertex 27.809 -28.0489 0
      vertex 28.5 -29 -3
    endloop
  endfacet
  facet normal -0.809017 -0.587785 0
    outer loop
      vertex 28.5 -29 -3
      vertex 27.809 -28.0489 0
      vertex 27.809 -28.0489 -3
    endloop
  endfacet
  facet normal -0.809017 0.587785 0
    outer loop
      vertex 28.5 -29 0
      vertex 28.5 -29 -3
      vertex 27.809 -29.9511 0
    endloop
  endfacet
  facet normal -0.809017 0.587785 0
    outer loop
      vertex 27.809 -29.9511 0
      vertex 28.5 -29 -3
      vertex 27.809 -29.9511 -3
    endloop
  endfacet
  facet normal 0.309018 0.951056 0
    outer loop
      vertex 27.809 -29.9511 0
      vertex 27.809 -29.9511 -3
      vertex 26.691 -29.5878 0
    endloop
  endfacet
  facet normal 0.309018 0.951056 0
    outer loop
      vertex 26.691 -29.5878 0
      vertex 27.809 -29.9511 -3
      vertex 26.691 -29.5878 -3
    endloop
  endfacet
  facet normal 1 0 0
    outer loop
      vertex 26.691 29.5878 -3
      vertex 26.691 29.5878 0
      vertex 26.691 28.4122 0
    endloop
  endfacet
  facet normal 1 0 0
    outer loop
      vertex 26.691 28.4122 -3
      vertex 26.691 29.5878 -3
      vertex 26.691 28.4122 0
    endloop
  endfacet
  facet normal 0.309018 -0.951056 0
    outer loop
      vertex 27.809 29.9511 -3
      vertex 27.809 29.9511 0
      vertex 26.691 29.5878 0
    endloop
  endfacet
  facet normal 0.309018 -0.951056 0
    outer loop
      vertex 26.691 29.5878 -3
      vertex 27.809 29.9511 -3
      vertex 26.691 29.5878 0
    endloop
  endfacet
  facet normal -0.809017 -0.587785 0
    outer loop
      vertex 28.5 29 0
      vertex 27.809 29.9511 0
      vertex 28.5 29 -3
    endloop
  endfacet
  facet normal -0.809017 -0.587785 0
    outer loop
      vertex 28.5 29 -3
      vertex 27.809 29.9511 0
      vertex 27.809 29.9511 -3
    endloop
  endfacet
  facet normal -0.809017 0.587785 0
    outer loop
      vertex 28.5 29 0
      vertex 28.5 29 -3
      vertex 27.809 28.0489 0
    endloop
  endfacet
  facet normal -0.809017 0.587785 0
    outer loop
      vertex 27.809 28.0489 0
      vertex 28.5 29 -3
      vertex 27.809 28.0489 -3
    endloop
  endfacet
  facet normal 0.309018 0.951056 0
    outer loop
      vertex 27.809 28.0489 0
      vertex 27.809 28.0489 -3
      vertex 26.691 28.4122 0
    endloop
  endfacet
  facet normal 0.309018 0.951056 0
    outer loop
      vertex 26.691 28.4122 0
      vertex 27.809 28.0489 -3
      vertex 26.691 28.4122 -3
    endloop
  endfacet
  facet normal 1.22465e-16 1 0
    outer loop
      vertex -32.5 -33.55 0
      vertex -32.5 -33.55 3
      vertex -32.4937 -33.55 0
    endloop
  endfacet
  facet normal 1.22465e-16 1 0
    outer loop
      vertex -32.4937 -33.55 0
      vertex -32.5 -33.55 3
      vertex -32.4937 -33.55 3
    endloop
  endfacet
  facet normal 1 0 0
    outer loop
      vertex -32.5 33.5 0
      vertex -32.5 33.5 3
      vertex -32.5 -33.55 3
    endloop
  endfacet
  facet normal 1 0 0
    outer loop
      vertex -32.5 -33.55 0
      vertex -32.5 33.5 0
      vertex -32.5 -33.55 3
    endloop
  endfacet
  facet normal 0.992115 0.125334 0
    outer loop
      vertex -32.4937 -33.55 3
      vertex -32.4057 -34.2461 3
      vertex -32.4057 -34.2461 0
    endloop
  endfacet
  facet normal 0.992115 0.125334 0
    outer loop
      vertex -32.4937 -33.55 0
      vertex -32.4937 -33.55 3
      vertex -32.4057 -34.2461 0
    endloop
  endfacet
  facet normal 0.929777 0.368124 0
    outer loop
      vertex -32.4057 -34.2461 3
      vertex -32.1289 -34.9453 3
      vertex -32.1289 -34.9453 0
    endloop
  endfacet
  facet normal 0.929777 0.368124 0
    outer loop
      vertex -32.4057 -34.2461 0
      vertex -32.4057 -34.2461 3
      vertex -32.1289 -34.9453 0
    endloop
  endfacet
  facet normal 0.809017 0.587785 0
    outer loop
      vertex -32.1289 -34.9453 3
      vertex -31.6869 -35.5536 3
      vertex -31.6869 -35.5536 0
    endloop
  endfacet
  facet normal 0.809017 0.587785 0
    outer loop
      vertex -32.1289 -34.9453 0
      vertex -32.1289 -34.9453 3
      vertex -31.6869 -35.5536 0
    endloop
  endfacet
  facet normal 0.637424 0.770513 0
    outer loop
      vertex -31.1075 -36.033 3
      vertex -31.1075 -36.033 0
      vertex -31.6869 -35.5536 3
    endloop
  endfacet
  facet normal 0.637424 0.770513 0
    outer loop
      vertex -31.6869 -35.5536 3
      vertex -31.1075 -36.033 0
      vertex -31.6869 -35.5536 0
    endloop
  endfacet
  facet normal 0.42578 0.904827 0
    outer loop
      vertex -30.4271 -36.3532 3
      vertex -30.4271 -36.3532 0
      vertex -31.1075 -36.033 3
    endloop
  endfacet
  facet normal 0.42578 0.904827 0
    outer loop
      vertex -31.1075 -36.033 3
      vertex -30.4271 -36.3532 0
      vertex -31.1075 -36.033 0
    endloop
  endfacet
  facet normal 0.187381 0.982287 0
    outer loop
      vertex -29.6884 -36.4941 3
      vertex -29.6884 -36.4941 0
      vertex -30.4271 -36.3532 3
    endloop
  endfacet
  facet normal 0.187381 0.982287 0
    outer loop
      vertex -30.4271 -36.3532 3
      vertex -29.6884 -36.4941 0
      vertex -30.4271 -36.3532 0
    endloop
  endfacet
  facet normal -0.0627899 0.998027 0
    outer loop
      vertex -29.5 -36.4822 3
      vertex -29.5 -36.4822 0
      vertex -29.6884 -36.4941 3
    endloop
  endfacet
  facet normal -0.0627899 0.998027 0
    outer loop
      vertex -29.6884 -36.4941 3
      vertex -29.5 -36.4822 0
      vertex -29.6884 -36.4941 0
    endloop
  endfacet
  facet normal 1 -1.22465e-16 0
    outer loop
      vertex -29.5 -36.5 3
      vertex -29.5 -36.5 0
      vertex -29.5 -36.4822 0
    endloop
  endfacet
  facet normal 1 -1.22465e-16 0
    outer loop
      vertex -29.5 -36.4822 3
      vertex -29.5 -36.5 3
      vertex -29.5 -36.4822 0
    endloop
  endfacet
  facet normal 0 1 0
    outer loop
      vertex 29.55 -36.5 3
      vertex 29.55 -36.5 0
      vertex -29.5 -36.5 3
    endloop
  endfacet
  facet normal 0 1 0
    outer loop
      vertex -29.5 -36.5 3
      vertex 29.55 -36.5 0
      vertex -29.5 -36.5 0
    endloop
  endfacet
  facet normal -1 1.83697e-16 0
    outer loop
      vertex 29.55 -36.5 0
      vertex 29.55 -36.5 3
      vertex 29.55 -36.4937 0
    endloop
  endfacet
  facet normal -1 1.83697e-16 0
    outer loop
      vertex 29.55 -36.4937 0
      vertex 29.55 -36.5 3
      vertex 29.55 -36.4937 3
    endloop
  endfacet
  facet normal -0.125334 0.992115 0
    outer loop
      vertex 30.2461 -36.4057 3
      vertex 30.2461 -36.4057 0
      vertex 29.55 -36.4937 3
    endloop
  endfacet
  facet normal -0.125334 0.992115 0
    outer loop
      vertex 29.55 -36.4937 3
      vertex 30.2461 -36.4057 0
      vertex 29.55 -36.4937 0
    endloop
  endfacet
  facet normal -0.368124 0.929777 0
    outer loop
      vertex 30.9453 -36.1289 3
      vertex 30.9453 -36.1289 0
      vertex 30.2461 -36.4057 3
    endloop
  endfacet
  facet normal -0.368124 0.929777 0
    outer loop
      vertex 30.2461 -36.4057 3
      vertex 30.9453 -36.1289 0
      vertex 30.2461 -36.4057 0
    endloop
  endfacet
  facet normal -0.587785 0.809017 0
    outer loop
      vertex 31.5536 -35.6869 3
      vertex 31.5536 -35.6869 0
      vertex 30.9453 -36.1289 3
    endloop
  endfacet
  facet normal -0.587785 0.809017 0
    outer loop
      vertex 30.9453 -36.1289 3
      vertex 31.5536 -35.6869 0
      vertex 30.9453 -36.1289 0
    endloop
  endfacet
  facet normal -0.770513 0.637424 0
    outer loop
      vertex 32.033 -35.1075 3
      vertex 32.033 -35.1075 0
      vertex 31.5536 -35.6869 3
    endloop
  endfacet
  facet normal -0.770513 0.637424 0
    outer loop
      vertex 31.5536 -35.6869 3
      vertex 32.033 -35.1075 0
      vertex 31.5536 -35.6869 0
    endloop
  endfacet
  facet normal -0.904827 0.42578 0
    outer loop
      vertex 32.3532 -34.4271 3
      vertex 32.3532 -34.4271 0
      vertex 32.033 -35.1075 3
    endloop
  endfacet
  facet normal -0.904827 0.42578 0
    outer loop
      vertex 32.033 -35.1075 3
      vertex 32.3532 -34.4271 0
      vertex 32.033 -35.1075 0
    endloop
  endfacet
  facet normal -0.982287 0.187381 0
    outer loop
      vertex 32.4941 -33.6884 3
      vertex 32.4941 -33.6884 0
      vertex 32.3532 -34.4271 3
    endloop
  endfacet
  facet normal -0.982287 0.187381 0
    outer loop
      vertex 32.3532 -34.4271 3
      vertex 32.4941 -33.6884 0
      vertex 32.3532 -34.4271 0
    endloop
  endfacet
  facet normal -0.998027 -0.0627899 0
    outer loop
      vertex 32.4941 -33.6884 3
      vertex 32.4822 -33.5 3
      vertex 32.4941 -33.6884 0
    endloop
  endfacet
  facet normal -0.998027 -0.0627899 0
    outer loop
      vertex 32.4941 -33.6884 0
      vertex 32.4822 -33.5 3
      vertex 32.4822 -33.5 0
    endloop
  endfacet
  facet normal 1.83697e-16 1 0
    outer loop
      vertex 32.4822 -33.5 0
      vertex 32.4822 -33.5 3
      vertex 32.5 -33.5 0
    endloop
  endfacet
  facet normal 1.83697e-16 1 0
    outer loop
      vertex 32.5 -33.5 0
      vertex 32.4822 -33.5 3
      vertex 32.5 -33.5 3
    endloop
  endfacet
  facet normal -1 0 0
    outer loop
      vertex 32.5 33.55 3
      vertex 32.5 33.55 0
      vertex 32.5 -33.5 3
    endloop
  endfacet
  facet normal -1 0 0
    outer loop
      vertex 32.5 -33.5 3
      vertex 32.5 33.55 0
      vertex 32.5 -33.5 0
    endloop
  endfacet
  facet normal 0 -1 0
    outer loop
      vertex 32.4937 33.55 3
      vertex 32.4937 33.55 0
      vertex 32.5 33.55 0
    endloop
  endfacet
  facet normal 0 -1 0
    outer loop
      vertex 32.5 33.55 3
      vertex 32.4937 33.55 3
      vertex 32.5 33.55 0
    endloop
  endfacet
  facet normal -0.992115 -0.125334 0
    outer loop
      vertex 32.4937 33.55 3
      vertex 32.4057 34.2461 3
      vertex 32.4937 33.55 0
    endloop
  endfacet
  facet normal -0.992115 -0.125334 0
    outer loop
      vertex 32.4937 33.55 0
      vertex 32.4057 34.2461 3
      vertex 32.4057 34.2461 0
    endloop
  endfacet
  facet normal -0.929777 -0.368124 0
    outer loop
      vertex 32.4057 34.2461 3
      vertex 32.1289 34.9453 3
      vertex 32.4057 34.2461 0
    endloop
  endfacet
  facet normal -0.929777 -0.368124 0
    outer loop
      vertex 32.4057 34.2461 0
      vertex 32.1289 34.9453 3
      vertex 32.1289 34.9453 0
    endloop
  endfacet
  facet normal -0.809017 -0.587785 0
    outer loop
      vertex 32.1289 34.9453 3
      vertex 31.6869 35.5536 3
      vertex 32.1289 34.9453 0
    endloop
  endfacet
  facet normal -0.809017 -0.587785 0
    outer loop
      vertex 32.1289 34.9453 0
      vertex 31.6869 35.5536 3
      vertex 31.6869 35.5536 0
    endloop
  endfacet
  facet normal -0.637424 -0.770513 0
    outer loop
      vertex 31.6869 35.5536 0
      vertex 31.6869 35.5536 3
      vertex 31.1075 36.033 3
    endloop
  endfacet
  facet normal -0.637424 -0.770513 0
    outer loop
      vertex 31.1075 36.033 0
      vertex 31.6869 35.5536 0
      vertex 31.1075 36.033 3
    endloop
  endfacet
  facet normal -0.42578 -0.904827 0
    outer loop
      vertex 31.1075 36.033 0
      vertex 31.1075 36.033 3
      vertex 30.4271 36.3532 3
    endloop
  endfacet
  facet normal -0.42578 -0.904827 0
    outer loop
      vertex 30.4271 36.3532 0
      vertex 31.1075 36.033 0
      vertex 30.4271 36.3532 3
    endloop
  endfacet
  facet normal -0.187381 -0.982287 0
    outer loop
      vertex 30.4271 36.3532 0
      vertex 30.4271 36.3532 3
      vertex 29.6884 36.4941 3
    endloop
  endfacet
  facet normal -0.187381 -0.982287 0
    outer loop
      vertex 29.6884 36.4941 0
      vertex 30.4271 36.3532 0
      vertex 29.6884 36.4941 3
    endloop
  endfacet
  facet normal 0.0627899 -0.998027 0
    outer loop
      vertex 29.6884 36.4941 0
      vertex 29.6884 36.4941 3
      vertex 29.5 36.4822 3
    endloop
  endfacet
  facet normal 0.0627899 -0.998027 0
    outer loop
      vertex 29.5 36.4822 0
      vertex 29.6884 36.4941 0
      vertex 29.5 36.4822 3
    endloop
  endfacet
  facet normal -1 0 0
    outer loop
      vertex 29.5 36.4822 0
      vertex 29.5 36.4822 3
      vertex 29.5 36.5 0
    endloop
  endfacet
  facet normal -1 0 0
    outer loop
      vertex 29.5 36.5 0
      vertex 29.5 36.4822 3
      vertex 29.5 36.5 3
    endloop
  endfacet
  facet normal 0 -1 0
    outer loop
      vertex 29.5 36.5 0
      vertex 29.5 36.5 3
      vertex -29.55 36.5 3
    endloop
  endfacet
  facet normal 0 -1 0
    outer loop
      vertex -29.55 36.5 0
      vertex 29.5 36.5 0
      vertex -29.55 36.5 3
    endloop
  endfacet
  facet normal 1 -6.12323e-17 0
    outer loop
      vertex -29.55 36.4937 3
      vertex -29.55 36.4937 0
      vertex -29.55 36.5 0
    endloop
  endfacet
  facet normal 1 -6.12323e-17 0
    outer loop
      vertex -29.55 36.5 3
      vertex -29.55 36.4937 3
      vertex -29.55 36.5 0
    endloop
  endfacet
  facet normal 0.125334 -0.992115 0
    outer loop
      vertex -29.55 36.4937 0
      vertex -29.55 36.4937 3
      vertex -30.2461 36.4057 3
    endloop
  endfacet
  facet normal 0.125334 -0.992115 0
    outer loop
      vertex -30.2461 36.4057 0
      vertex -29.55 36.4937 0
      vertex -30.2461 36.4057 3
    endloop
  endfacet
  facet normal 0.368124 -0.929777 0
    outer loop
      vertex -30.2461 36.4057 0
      vertex -30.2461 36.4057 3
      vertex -30.9453 36.1289 3
    endloop
  endfacet
  facet normal 0.368124 -0.929777 0
    outer loop
      vertex -30.9453 36.1289 0
      vertex -30.2461 36.4057 0
      vertex -30.9453 36.1289 3
    endloop
  endfacet
  facet normal 0.587785 -0.809017 0
    outer loop
      vertex -30.9453 36.1289 0
      vertex -30.9453 36.1289 3
      vertex -31.5536 35.6869 3
    endloop
  endfacet
  facet normal 0.587785 -0.809017 0
    outer loop
      vertex -31.5536 35.6869 0
      vertex -30.9453 36.1289 0
      vertex -31.5536 35.6869 3
    endloop
  endfacet
  facet normal 0.770513 -0.637424 0
    outer loop
      vertex -31.5536 35.6869 0
      vertex -31.5536 35.6869 3
      vertex -32.033 35.1075 3
    endloop
  endfacet
  facet normal 0.770513 -0.637424 0
    outer loop
      vertex -32.033 35.1075 0
      vertex -31.5536 35.6869 0
      vertex -32.033 35.1075 3
    endloop
  endfacet
  facet normal 0.904827 -0.42578 0
    outer loop
      vertex -32.033 35.1075 0
      vertex -32.033 35.1075 3
      vertex -32.3532 34.4271 3
    endloop
  endfacet
  facet normal 0.904827 -0.42578 0
    outer loop
      vertex -32.3532 34.4271 0
      vertex -32.033 35.1075 0
      vertex -32.3532 34.4271 3
    endloop
  endfacet
  facet normal 0.982287 -0.187381 0
    outer loop
      vertex -32.3532 34.4271 0
      vertex -32.3532 34.4271 3
      vertex -32.4941 33.6884 3
    endloop
  endfacet
  facet normal 0.982287 -0.187381 0
    outer loop
      vertex -32.4941 33.6884 0
      vertex -32.3532 34.4271 0
      vertex -32.4941 33.6884 3
    endloop
  endfacet
  facet normal 0.998027 0.0627899 0
    outer loop
      vertex -32.4941 33.6884 3
      vertex -32.4822 33.5 3
      vertex -32.4822 33.5 0
    endloop
  endfacet
  facet normal 0.998027 0.0627899 0
    outer loop
      vertex -32.4941 33.6884 0
      vertex -32.4941 33.6884 3
      vertex -32.4822 33.5 0
    endloop
  endfacet
  facet normal -6.12323e-17 -1 0
    outer loop
      vertex -32.5 33.5 3
      vertex -32.5 33.5 0
      vertex -32.4822 33.5 0
    endloop
  endfacet
  facet normal -6.12323e-17 -1 0
    outer loop
      vertex -32.4822 33.5 3
      vertex -32.5 33.5 3
      vertex -32.4822 33.5 0
    endloop
  endfacet
  facet normal 0 0 1
    outer loop
      vertex -32.4937 -33.55 0
      vertex -32.4057 -34.2461 0
      vertex -32.1289 -34.9453 0
    endloop
  endfacet
  facet normal 0 0 1
    outer loop
      vertex -31.1075 -36.033 0
      vertex -32.4937 -33.55 0
      vertex -31.6869 -35.5536 0
    endloop
  endfacet
  facet normal 0 0 1
    outer loop
      vertex -31.6869 -35.5536 0
      vertex -32.4937 -33.55 0
      vertex -32.1289 -34.9453 0
    endloop
  endfacet
  facet normal 0 0 1
    outer loop
      vertex -30.4271 -36.3532 0
      vertex -32.4937 -33.55 0
      vertex -31.1075 -36.033 0
    endloop
  endfacet
  facet normal 0 0 1
    outer loop
      vertex -29.6884 -36.4941 0
      vertex -32.4937 -33.55 0
      vertex -30.4271 -36.3532 0
    endloop
  endfacet
  facet normal 0 0 1
    outer loop
      vertex -29.5 -36.4822 0
      vertex -32.4937 -33.55 0
      vertex -29.6884 -36.4941 0
    endloop
  endfacet
  facet normal 0 0 1
    outer loop
      vertex 29.55 -36.5 0
      vertex -32.4937 -33.55 0
      vertex -29.5 -36.4822 0
    endloop
  endfacet
  facet normal 0 0 1
    outer loop
      vertex 29.55 -36.5 0
      vertex -29.5 -36.4822 0
      vertex -29.5 -36.5 0
    endloop
  endfacet
  facet normal 0 0 1
    outer loop
      vertex 29.55 -36.4937 0
      vertex -32.4937 -33.55 0
      vertex 29.55 -36.5 0
    endloop
  endfacet
  facet normal 0 0 1
    outer loop
      vertex 30.2461 -36.4057 0
      vertex -32.4937 -33.55 0
      vertex 29.55 -36.4937 0
    endloop
  endfacet
  facet normal 0 0 1
    outer loop
      vertex 30.9453 -36.1289 0
      vertex -32.4937 -33.55 0
      vertex 30.2461 -36.4057 0
    endloop
  endfacet
  facet normal 0 0 1
    outer loop
      vertex 31.5536 -35.6869 0
      vertex -32.4937 -33.55 0
      vertex 30.9453 -36.1289 0
    endloop
  endfacet
  facet normal 0 0 1
    outer loop
      vertex 32.033 -35.1075 0
      vertex -32.4937 -33.55 0
      vertex 31.5536 -35.6869 0
    endloop
  endfacet
  facet normal 0 0 1
    outer loop
      vertex 32.3532 -34.4271 0
      vertex -32.4937 -33.55 0
      vertex 32.033 -35.1075 0
    endloop
  endfacet
  facet normal 0 0 1
    outer loop
      vertex 32.4941 -33.6884 0
      vertex -32.4937 -33.55 0
      vertex 32.3532 -34.4271 0
    endloop
  endfacet
  facet normal 0 0 1
    outer loop
      vertex 32.4822 -33.5 0
      vertex -32.4937 -33.55 0
      vertex 32.4941 -33.6884 0
    endloop
  endfacet
  facet normal 0 0 1
    outer loop
      vertex -27.191 -29.9511 0
      vertex -32.4937 -33.55 0
      vertex 32.4822 -33.5 0
    endloop
  endfacet
  facet normal 0 0 1
    outer loop
      vertex 32.5 33.55 0
      vertex 32.4822 -33.5 0
      vertex 32.5 -33.5 0
    endloop
  endfacet
  facet normal 0 0 1
    outer loop
      vertex 18 28 0
      vertex 31.6869 35.5536 0
      vertex 31.1075 36.033 0
    endloop
  endfacet
  facet normal 0 0 1
    outer loop
      vertex 18 28 0
      vertex 30.4271 36.3532 0
      vertex 29.6884 36.4941 0
    endloop
  endfacet
  facet normal 0 0 1
    outer loop
      vertex 18 28 0
      vertex 29.6884 36.4941 0
      vertex 29.5 36.4822 0
    endloop
  endfacet
  facet normal 0 0 1
    outer loop
      vertex 18 28 0
      vertex 29.5 36.4822 0
      vertex 29.5 36.5 0
    endloop
  endfacet
  facet normal 0 0 1
    outer loop
      vertex 28.5 -29 0
      vertex 27.809 -29.9511 0
      vertex 32.4822 -33.5 0
    endloop
  endfacet
  facet normal 0 0 1
    outer loop
      vertex 27.809 29.9511 0
      vertex 28.5 29 0
      vertex 32.5 33.55 0
    endloop
  endfacet
  facet normal 0 0 1
    outer loop
      vertex -29.55 36.5 0
      vertex -29.55 36.4937 0
      vertex 29.5 36.5 0
    endloop
  endfacet
  facet normal 0 0 1
    outer loop
      vertex -32.4822 33.5 0
      vertex -32.5 33.5 0
      vertex -32.4937 -33.55 0
    endloop
  endfacet
  facet normal 0 0 1
    outer loop
      vertex -30.9453 36.1289 0
      vertex -32.4937 -33.55 0
      vertex -30.2461 36.4057 0
    endloop
  endfacet
  facet normal 0 0 1
    outer loop
      vertex -31.5536 35.6869 0
      vertex -32.4937 -33.55 0
      vertex -30.9453 36.1289 0
    endloop
  endfacet
  facet normal 0 0 1
    outer loop
      vertex -32.033 35.1075 0
      vertex -32.4937 -33.55 0
      vertex -31.5536 35.6869 0
    endloop
  endfacet
  facet normal 0 0 1
    outer loop
      vertex -32.3532 34.4271 0
      vertex -32.4937 -33.55 0
      vertex -32.033 35.1075 0
    endloop
  endfacet
  facet normal 0 0 1
    outer loop
      vertex -32.4822 33.5 0
      vertex -32.4937 -33.55 0
      vertex -32.3532 34.4271 0
    endloop
  endfacet
  facet normal 0 0 1
    outer loop
      vertex -32.4941 33.6884 0
      vertex -32.4822 33.5 0
      vertex -32.3532 34.4271 0
    endloop
  endfacet
  facet normal 0 0 1
    outer loop
      vertex -32.5 -33.55 0
      vertex -32.4937 -33.55 0
      vertex -32.5 33.5 0
    endloop
  endfacet
  facet normal 0 0 1
    outer loop
      vertex -29.55 36.4937 0
      vertex -32.4937 -33.55 0
      vertex -28.309 -28.4122 0
    endloop
  endfacet
  facet normal 0 0 1
    outer loop
      vertex 18 28 0
      vertex 26.691 28.4122 0
      vertex 26.691 29.5878 0
    endloop
  endfacet
  facet normal 0 0 1
    outer loop
      vertex 27.809 -29.9511 0
      vertex -26.5 -29 0
      vertex 32.4822 -33.5 0
    endloop
  endfacet
  facet normal 0 0 1
    outer loop
      vertex -26.5 -29 0
      vertex -27.191 -29.9511 0
      vertex 32.4822 -33.5 0
    endloop
  endfacet
  facet normal 0 0 1
    outer loop
      vertex -27.191 29.9511 0
      vertex -26.5 29 0
      vertex 29.5 36.5 0
    endloop
  endfacet
  facet normal 0 0 1
    outer loop
      vertex 18 10 0
      vertex -28.309 -28.4122 0
      vertex -27.191 -28.0489 0
    endloop
  endfacet
  facet normal 0 0 1
    outer loop
      vertex -28.309 28.4122 0
      vertex -28.309 -28.4122 0
      vertex -27.191 28.0489 0
    endloop
  endfacet
  facet normal 0 0 1
    outer loop
      vertex -29.55 36.4937 0
      vertex -27.191 29.9511 0
      vertex 29.5 36.5 0
    endloop
  endfacet
  facet normal 0 0 1
    outer loop
      vertex -29.55 36.4937 0
      vertex -28.309 29.5878 0
      vertex -27.191 29.9511 0
    endloop
  endfacet
  facet normal 0 0 1
    outer loop
      vertex 18 10 0
      vertex -27.191 -28.0489 0
      vertex -26.5 -29 0
    endloop
  endfacet
  facet normal 0 0 1
    outer loop
      vertex -27.191 28.0489 0
      vertex -28.309 -28.4122 0
      vertex -26.5 29 0
    endloop
  endfacet
  facet normal 0 0 1
    outer loop
      vertex -29.55 36.4937 0
      vertex -28.309 28.4122 0
      vertex -28.309 29.5878 0
    endloop
  endfacet
  facet normal 0 0 1
    outer loop
      vertex -29.55 36.4937 0
      vertex -28.309 -28.4122 0
      vertex -28.309 28.4122 0
    endloop
  endfacet
  facet normal 0 0 1
    outer loop
      vertex -26.5 29 0
      vertex -15 28 0
      vertex 29.5 36.5 0
    endloop
  endfacet
  facet normal 0 0 1
    outer loop
      vertex -26.5 29 0
      vertex -28.309 -28.4122 0
      vertex -15 28 0
    endloop
  endfacet
  facet normal 0 0 1
    outer loop
      vertex -15 28 0
      vertex 18 28 0
      vertex 29.5 36.5 0
    endloop
  endfacet
  facet normal 0 0 1
    outer loop
      vertex 32.5 33.55 0
      vertex 18 10 0
      vertex 32.4822 -33.5 0
    endloop
  endfacet
  facet normal 0 0 1
    outer loop
      vertex -15 28 0
      vertex -28.309 -28.4122 0
      vertex -15 10 0
    endloop
  endfacet
  facet normal 0 0 1
    outer loop
      vertex 27.809 29.9511 0
      vertex 32.4937 33.55 0
      vertex 32.4057 34.2461 0
    endloop
  endfacet
  facet normal 0 0 1
    outer loop
      vertex 18 10 0
      vertex -26.5 -29 0
      vertex 26.691 -28.4122 0
    endloop
  endfacet
  facet normal 0 0 1
    outer loop
      vertex 18 10 0
      vertex 27.809 -28.0489 0
      vertex 32.4822 -33.5 0
    endloop
  endfacet
  facet normal 0 0 1
    outer loop
      vertex 18 10 0
      vertex 26.691 -28.4122 0
      vertex 27.809 -28.0489 0
    endloop
  endfacet
  facet normal 0 0 1
    outer loop
      vertex 27.809 -28.0489 0
      vertex 28.5 -29 0
      vertex 32.4822 -33.5 0
    endloop
  endfacet
  facet normal 0 0 1
    outer loop
      vertex 26.691 -29.5878 0
      vertex -26.5 -29 0
      vertex 27.809 -29.9511 0
    endloop
  endfacet
  facet normal 0 0 1
    outer loop
      vertex 26.691 -28.4122 0
      vertex -26.5 -29 0
      vertex 26.691 -29.5878 0
    endloop
  endfacet
  facet normal 0 0 1
    outer loop
      vertex 31.6869 35.5536 0
      vertex 26.691 29.5878 0
      vertex 32.1289 34.9453 0
    endloop
  endfacet
  facet normal 0 0 1
    outer loop
      vertex 18 28 0
      vertex 31.1075 36.033 0
      vertex 30.4271 36.3532 0
    endloop
  endfacet
  facet normal 0 0 1
    outer loop
      vertex 32.1289 34.9453 0
      vertex 27.809 29.9511 0
      vertex 32.4057 34.2461 0
    endloop
  endfacet
  facet normal 0 0 1
    outer loop
      vertex 18 28 0
      vertex 26.691 29.5878 0
      vertex 31.6869 35.5536 0
    endloop
  endfacet
  facet normal 0 0 1
    outer loop
      vertex 32.5 33.55 0
      vertex 28.5 29 0
      vertex 18 10 0
    endloop
  endfacet
  facet normal 0 0 1
    outer loop
      vertex 27.809 29.9511 0
      vertex 32.5 33.55 0
      vertex 32.4937 33.55 0
    endloop
  endfacet
  facet normal 0 0 1
    outer loop
      vertex 28.5 29 0
      vertex 27.809 28.0489 0
      vertex 18 10 0
    endloop
  endfacet
  facet normal 0 0 1
    outer loop
      vertex 18 10 0
      vertex -15 10 0
      vertex -28.309 -28.4122 0
    endloop
  endfacet
  facet normal 0 0 1
    outer loop
      vertex 26.691 29.5878 0
      vertex 27.809 29.9511 0
      vertex 32.1289 34.9453 0
    endloop
  endfacet
  facet normal 0 0 1
    outer loop
      vertex -29.55 36.4937 0
      vertex -30.2461 36.4057 0
      vertex -32.4937 -33.55 0
    endloop
  endfacet
  facet normal 0 0 1
    outer loop
      vertex -27.191 -29.9511 0
      vertex -28.309 -29.5878 0
      vertex -32.4937 -33.55 0
    endloop
  endfacet
  facet normal 0 0 1
    outer loop
      vertex -28.309 -29.5878 0
      vertex -28.309 -28.4122 0
      vertex -32.4937 -33.55 0
    endloop
  endfacet
  facet normal 0 0 1
    outer loop
      vertex 18 28 0
      vertex 27.809 28.0489 0
      vertex 26.691 28.4122 0
    endloop
  endfacet
  facet normal 0 0 1
    outer loop
      vertex 18 28 0
      vertex 18 10 0
      vertex 27.809 28.0489 0
    endloop
  endfacet
endsolid OpenSCAD_Model
